<svg xmlns="http://www.w3.org/2000/svg" width="27" height="27" viewBox="0 0 27 27" fill="none"><path d="M14.6391 26.4843C14.0179 26.3453 13.569 25.9512 13.1363 25.5111C11.9794 24.3359 10.798 23.1844 9.63974 22.0098C8.63199 20.9878 8.93649 19.3392 10.2223 18.773C10.9845 18.4373 11.8281 18.6014 12.4615 19.2266C13.2265 19.9808 13.9826 20.7437 14.7395 21.5059C14.8039 21.571 14.8453 21.6592 14.9049 21.7474C15.0257 21.6327 15.0928 21.5717 15.1572 21.5073C17.8726 18.7919 20.5872 16.0753 23.3032 13.3613C24.1109 12.5543 25.2577 12.479 26.0701 13.1687C26.4546 13.4949 26.654 13.9235 26.7713 14.4002V15.0092C26.6215 15.6473 26.1922 16.0908 25.7453 16.5357C22.7363 19.5298 19.7327 22.5299 16.7353 25.5362C16.3047 25.9682 15.8645 26.3581 15.2467 26.4843H14.6377H14.6391Z" fill="white"></path><path d="M24.8623 11.1442C24.5626 11.1843 24.2574 11.2032 23.9631 11.2697C23.3039 11.4182 22.7431 11.7539 22.2657 12.2327C21.2017 13.2987 20.1356 14.3628 19.0729 15.4302C19.0098 15.4933 18.9739 15.5835 18.8851 15.6309C19.705 13.7294 19.7741 11.8421 18.9332 9.95747C18.3005 8.53944 17.2683 7.4822 15.8802 6.78641C13.0706 5.37924 9.70283 6.17607 7.73889 8.66422C5.82242 11.092 5.75799 15.3902 8.84496 17.8261C8.22377 18.3354 7.7728 18.9641 7.6175 19.7555C7.5368 20.1644 7.54358 20.5937 7.54087 21.0141C7.54019 21.1593 7.52934 21.24 7.39099 21.3112C6.91018 21.558 6.43818 21.8225 5.9594 22.0748C5.57625 22.2769 5.30024 22.2368 4.99439 21.9344C4.55494 21.5004 4.11821 21.0636 3.68419 20.6235C3.38173 20.3177 3.34511 20.0471 3.55127 19.6585C3.83271 19.1282 4.11346 18.5979 4.40439 18.073C4.55766 17.7963 4.54545 17.5399 4.41728 17.2531C4.15144 16.661 3.90459 16.0595 3.66995 15.4546C3.56077 15.1718 3.3953 14.9826 3.09962 14.8978C2.53946 14.7371 1.98337 14.5628 1.42525 14.396C0.937656 14.2502 0.774899 14.0373 0.774221 13.5354C0.773542 12.9434 0.772864 12.3507 0.774221 11.7587C0.775577 11.3185 0.948507 11.0839 1.36693 10.9571C1.94065 10.7828 2.51437 10.6078 3.09013 10.4424C3.39462 10.3549 3.56212 10.1596 3.67402 9.86592C3.90188 9.26711 4.14737 8.67372 4.41253 8.0905C4.54681 7.79415 4.55562 7.53306 4.39625 7.24823C4.10736 6.73216 3.83271 6.20794 3.55534 5.68508C3.3424 5.28429 3.38038 5.01778 3.69572 4.7004C4.12499 4.26774 4.55562 3.83711 4.98761 3.40783C5.30431 3.09385 5.57218 3.05519 5.97229 3.26813C6.50193 3.54957 7.03225 3.831 7.55714 4.12126C7.82501 4.26977 8.07661 4.2596 8.35465 4.13685C8.95618 3.87102 9.56381 3.61874 10.1762 3.37935C10.459 3.26881 10.6428 3.09588 10.7275 2.80224C10.891 2.23395 11.0646 1.66904 11.2355 1.10278C11.3718 0.651129 11.5949 0.487015 12.0703 0.485659C12.6711 0.484303 13.272 0.483625 13.8721 0.485659C14.3001 0.487015 14.5299 0.653842 14.6574 1.0648C14.8372 1.64598 15.0141 2.22784 15.183 2.81174C15.2685 3.10741 15.4577 3.2722 15.7405 3.38139C16.3386 3.61128 16.934 3.85067 17.5165 4.11786C17.8224 4.25824 18.0896 4.26909 18.3819 4.10566C18.883 3.8249 19.3917 3.55703 19.8982 3.28509C20.339 3.04841 20.5961 3.08435 20.946 3.43225C21.3658 3.84999 21.7855 4.26842 22.2026 4.68887C22.5268 5.01574 22.5661 5.28701 22.3484 5.69593C22.0744 6.21066 21.8045 6.72809 21.5183 7.23603C21.3536 7.52899 21.3617 7.79686 21.5007 8.10203C21.7659 8.68525 22.0107 9.27864 22.2392 9.87745C22.3518 10.1724 22.5254 10.3583 22.8299 10.4451C23.3907 10.6044 23.9475 10.7767 24.5043 10.9489C24.6304 10.9876 24.7498 11.0466 24.8725 11.0961L24.8637 11.1456L24.8623 11.1442Z" fill="white"></path></svg>