<svg xmlns="http://www.w3.org/2000/svg" width="39" height="39" viewBox="0 0 39 39" fill="none"><g clip-path="url(#clip0_4924_127)"><path d="M37.002 23.8922L37.002 23.8923C37.0462 24.2769 37.0932 24.6639 37.1404 25.053C37.3027 26.3893 37.4679 27.7487 37.5278 29.1081C37.6207 31.2133 37.124 33.2535 36.6052 35.1871C36.4871 35.627 36.4485 35.984 36.4932 36.2964C36.5364 36.5986 36.6621 36.8904 36.9271 37.1965C36.9272 37.1966 36.9273 37.1967 36.9273 37.1968L36.5494 37.5241C36.7688 37.7769 36.9636 38.0514 37.1584 38.326C37.2437 38.4462 37.3289 38.5664 37.4163 38.6848L37.002 23.8922ZM37.002 23.8922C36.8573 22.6323 36.687 21.3746 36.5176 20.1231C36.4935 19.945 36.4694 19.767 36.4455 19.5892M37.002 23.8922L33.6301 20.8515M37.7225 38.0988V38.1867H37.6731L37.7225 38.0988ZM37.7225 38.0988C37.6622 38.0052 37.6015 37.9112 37.5405 37.8168C37.292 37.432 37.0393 37.0407 36.7982 36.645L36.7982 36.6449C36.7371 36.5446 36.6876 36.4266 36.6579 36.3058C36.6296 36.1909 36.6087 36.0309 36.649 35.8639L36.6494 35.8626C37.102 34.0093 37.496 32.1658 37.6815 30.2916C37.6879 30.2235 37.7057 30.1656 37.7225 30.1233V28.2093C37.7113 28.1109 37.7009 28.015 37.6907 27.9205C37.6695 27.7254 37.649 27.5364 37.6238 27.3435L37.6238 27.3432C37.4112 25.7065 37.1977 24.0687 36.9841 22.4319L36.9841 22.4319C36.9389 22.0859 36.8982 21.7447 36.8578 21.4067C36.7665 20.6427 36.6773 19.8954 36.5439 19.147C36.4353 18.5389 36.227 18.0445 35.9162 17.6697C35.6097 17.2999 35.1814 17.0191 34.5809 16.8681L34.5806 16.868C34.3856 16.8188 34.2039 16.7978 33.998 16.7739C33.8928 16.7618 33.7814 16.7489 33.6587 16.7311L33.3612 16.6881L33.2597 16.4053C33.194 16.2224 33.133 16.0464 33.0737 15.8751C32.9519 15.5233 32.8368 15.191 32.7012 14.858C32.4236 14.1796 31.9081 13.7781 31.179 13.615L31.1789 13.615C31.0135 13.578 30.8343 13.5611 30.6259 13.548C30.5827 13.5453 30.5374 13.5427 30.4906 13.54C30.3241 13.5304 30.1382 13.5198 29.9587 13.4981C29.8579 13.4861 29.7426 13.4566 29.6371 13.4101C29.5832 13.3863 29.5182 13.3522 29.4552 13.3033C29.3956 13.2571 29.309 13.1755 29.255 13.0489L29.2544 13.0475C28.8894 12.1842 28.0515 11.8185 27.0338 11.9756L27.0337 11.9756C26.8347 12.0063 26.6543 12.054 26.4402 12.1105C26.327 12.1404 26.2045 12.1728 26.0648 12.2065L25.4924 12.3445L25.4489 11.7574C25.4281 11.4761 25.4099 11.2009 25.392 10.9296C25.3531 10.3409 25.3155 9.77054 25.2545 9.19612L37.7225 38.0988ZM33.6301 20.8515C33.6524 20.2607 33.6599 19.6751 33.6343 19.0962C33.6189 18.7487 33.5791 18.4138 33.5364 18.0533C33.5161 17.8824 33.4951 17.7057 33.4757 17.5192L33.4124 16.9103L34.0217 16.9699C34.5378 17.0204 35.015 17.1657 35.4093 17.4564C35.8095 17.7516 36.086 18.1685 36.2419 18.6924L36.2421 18.6931C36.3246 18.9715 36.4032 19.2749 36.4455 19.5892M33.6301 20.8515C33.6261 20.9563 33.6019 20.9956 33.5958 21.0038C33.5954 21.0039 33.5947 21.0042 33.594 21.0044C33.5878 21.0064 33.5684 21.0112 33.5309 21.0085L33.5308 21.0085C33.5035 21.0065 33.4923 21.0008 33.4907 21C33.49 20.9996 33.49 20.9999 33.4884 20.9977C33.4848 20.9928 33.453 20.9432 33.4636 20.8081L33.6301 20.8515ZM36.4455 19.5892L35.9519 19.6556L36.4454 19.589C36.4454 19.5891 36.4454 19.5892 36.4455 19.5892ZM21.7659 25.6851C22.09 25.7027 22.3438 25.4823 22.3781 25.1355L15.6123 20.992M21.7659 25.6851L21.7933 25.1859C21.7932 25.1859 21.7931 25.1859 21.793 25.1858L21.7659 25.6851ZM21.7659 25.6851C21.4611 25.6684 21.2222 25.4362 21.2212 25.1042H21.7212C21.7212 24.9386 21.7327 24.7707 21.7456 24.5822L21.7465 24.5698C21.7593 24.3825 21.7733 24.1743 21.7712 23.9627L21.7711 23.9604C21.7668 23.6656 21.6092 23.4079 21.5208 23.2781L21.5206 23.2777C21.3834 23.0766 21.231 22.8748 21.0877 22.6851C21.0272 22.6051 20.9684 22.5272 20.9131 22.4525C20.7181 22.1893 20.5483 21.9422 20.4177 21.6858L20.4177 21.6857C19.5266 19.9378 18.0714 18.9569 16.2899 18.4729C15.8877 18.3636 15.4489 18.4278 15.1261 18.5179C14.7842 18.6132 14.4761 18.8249 14.3363 19.174C14.1974 19.5207 14.2718 19.8854 14.4448 20.1899L14.4452 20.1905C14.6622 20.5712 14.9194 20.9779 15.2446 21.3308L15.6123 20.992M15.6123 20.992L15.244 21.3302C16.65 22.8612 17.5799 24.6586 18.2904 26.653C18.6088 27.5476 19.0953 28.3967 19.5533 29.1961C19.6865 29.4286 19.8174 29.657 19.9409 29.881M15.6123 20.992L25.2574 36.4216C25.349 36.4775 25.3971 36.4691 25.4032 36.4677C25.4078 36.4667 25.4111 36.4651 25.4151 36.462C25.4194 36.4587 25.4291 36.4497 25.4401 36.4291L25.4405 36.4282C25.4534 36.4044 25.4542 36.3927 25.4542 36.3922C25.4543 36.3915 25.4542 36.3917 25.4543 36.392C25.4543 36.3924 25.4543 36.3915 25.4533 36.3889C25.4494 36.3792 25.4209 36.323 25.2997 36.2537L25.2993 36.2534C25.2192 36.2076 25.1374 36.1612 25.0546 36.1142C24.808 35.9743 24.552 35.8291 24.3039 35.6761L24.3038 35.676C23.1663 34.974 22.2105 34.0794 21.6059 32.7713L21.6058 32.7712C21.384 32.2911 21.1122 31.8272 20.8202 31.3496C20.758 31.2478 20.6945 31.1449 20.6305 31.0411C20.3987 30.6652 20.1592 30.2768 19.9409 29.881M19.9409 29.881L20.3759 29.6411L19.941 29.8811C19.941 29.881 19.941 29.881 19.9409 29.881ZM29.9628 20.991C30.2958 20.9635 30.5162 20.6982 30.4869 20.321C30.3953 19.1689 30.2951 18.0167 30.1949 16.8645L30.19 16.8093C30.1382 16.2095 30.0835 15.6098 30.0289 15.012C30.0051 14.7516 29.9814 14.4915 29.9579 14.232C30.9453 14.0097 31.8044 14.4456 32.1639 15.3271C32.2373 15.5084 32.3059 15.6916 32.3587 15.8796C32.8065 17.4784 33.0974 19.0966 32.9651 20.7687C32.9309 21.2055 33.1405 21.4818 33.4951 21.5072L29.9628 20.991ZM29.9628 20.991C29.618 21.0204 29.3643 20.8196 29.328 20.4327L29.9628 20.991ZM20.8006 22.061C20.7933 22.0472 20.7819 22.0265 20.7681 22.0014C20.7294 21.9312 20.672 21.8269 20.6351 21.7451L20.6345 21.7438C19.8692 20.0337 18.4975 19.0052 16.7225 18.3874C16.369 18.2648 15.9478 18.2178 15.5494 18.2419L15.5491 18.2419C14.8729 18.2826 14.4451 18.5928 14.251 18.9652C14.0569 19.3374 14.0477 19.865 14.4015 20.4414L20.8006 22.061ZM20.8006 22.061C20.8045 22.0688 20.8066 22.0737 20.8115 22.0853C20.8157 22.095 20.8217 22.1092 20.8324 22.1334L21.0185 22.5548L21.4537 22.4038C21.4688 22.3986 21.4771 22.3959 21.4882 22.3923C21.4986 22.389 21.5114 22.3849 21.5347 22.3771L21.8564 22.2693L21.8751 21.9306C21.8792 21.8571 21.8847 21.7777 21.8904 21.6945C21.9045 21.4909 21.9201 21.2654 21.9201 21.0519L20.8006 22.061ZM23.1958 35.0925L23.1958 35.0925C23.8472 35.5584 24.5356 35.9797 25.2395 36.4106L25.2571 36.4214L23.1958 35.0925ZM23.1958 35.0925C22.571 34.6457 22.1006 34.0443 21.7123 33.3165L21.7122 33.3162M23.1958 35.0925L21.7122 33.3162M21.7122 33.3162C21.0567 32.0892 20.3607 30.8818 19.627 29.7009L19.627 29.7008M21.7122 33.3162L19.627 29.7008M19.627 29.7008C18.9039 28.5372 18.3055 27.3316 17.8794 26.0468L17.8794 26.0468M19.627 29.7008L17.8794 26.0468M17.8794 26.0468C17.3667 24.5013 16.5751 23.119 15.5054 21.8909L15.5054 21.8909M17.8794 26.0468L15.5054 21.8909M15.5054 21.8909C15.095 21.4198 14.7109 20.9448 14.4015 20.4415L15.5054 21.8909ZM21.9367 6.22075L21.9367 6.22095C21.9199 8.50512 21.9183 10.7894 21.9166 13.0756C21.9164 13.3237 21.9163 13.5719 21.9161 13.82C21.9156 15.0249 21.9169 16.2298 21.9181 17.4352V17.4363C21.9193 18.6412 21.9205 19.8464 21.9201 21.0518L21.9367 6.22075ZM21.9367 6.22075C21.9395 5.81346 21.9807 5.41254 22.0246 4.9852C22.0381 4.85409 22.0518 4.72048 22.0648 4.58345C22.0654 4.57644 22.0666 4.56828 22.0684 4.56002C22.0688 4.55828 22.0692 4.55662 22.0695 4.55507C22.5889 4.02947 23.1275 3.76876 23.7559 3.87539L23.7561 3.87543M21.9367 6.22075L23.7561 3.87543M23.7561 3.87543C24.0708 3.92867 24.2877 4.05814 24.4385 4.2292C24.5932 4.40464 24.7052 4.65495 24.7508 4.98732L24.7508 4.98777M23.7561 3.87543L24.7508 4.98777M24.7508 4.98777C24.9438 6.38509 25.1048 7.78887 25.2545 9.196L24.7508 4.98777ZM25.8 21.5487C25.7995 21.5483 25.7989 21.5476 25.7982 21.5467C25.7864 21.5324 25.7454 21.4665 25.7366 21.3013L25.7366 21.3012C25.6839 20.3186 25.632 19.3356 25.58 18.3524C25.4149 15.2289 25.2497 12.1029 25.0595 8.97865C24.9866 7.77609 24.8202 6.57937 24.6574 5.40857C24.6488 5.34659 24.6402 5.28468 24.6316 5.22285C24.5669 4.75474 24.3797 4.25216 23.8723 4.08297C23.6383 4.00494 23.4016 4.02558 23.1932 4.0828C22.9848 4.13999 22.7741 4.24183 22.5669 4.36656L22.5646 4.36792C22.3771 4.4821 22.2866 4.66701 22.246 4.76852C22.1982 4.88789 22.1682 5.02378 22.1643 5.15103L22.1643 5.1513C22.1562 5.42084 22.1475 5.69126 22.1388 5.96235C22.1042 7.03698 22.0693 8.12226 22.0739 9.20598C22.0739 9.20602 22.0739 9.20606 22.0739 9.2061L22.5739 9.20396C22.5788 10.3987 22.5957 11.5935 22.6126 12.7883C22.6371 14.5193 22.6615 16.2503 22.6493 17.9809C22.6391 19.4744 22.5708 20.9671 22.5024 22.4598L25.8 21.5487Z" fill="white" stroke="white"></path><path d="M13.5159 38.6809C13.0525 38.5789 12.5716 38.5281 12.1308 38.3674C10.7614 37.8668 9.8876 36.7757 9.51928 35.1544H9.10101C6.58355 35.1544 4.06607 35.1544 1.5486 35.1544C1.4389 35.1544 1.32723 35.1614 1.21849 35.1485C0.900138 35.1094 0.669941 34.8557 0.688553 34.5519C0.708144 34.2278 0.89426 34.0377 1.21164 33.9867C1.31939 33.9691 1.43106 33.9799 1.54077 33.9799C4.05824 33.9799 6.5757 33.9799 9.09317 33.9799H9.5183C9.7436 32.7995 10.3166 31.8523 11.3099 31.1842C12.0426 30.6915 12.8537 30.4526 13.7343 30.4975C15.7434 30.5995 17.15 31.8416 17.6614 33.9799C18.2833 33.9799 18.9162 33.9789 19.549 33.981C19.6704 33.981 19.7987 33.974 19.9114 34.0113C20.2004 34.1053 20.3493 34.3179 20.3278 34.6255C20.3061 34.9282 20.0652 35.1446 19.7263 35.1515C19.1767 35.1622 18.6263 35.1554 18.0766 35.1554C17.9435 35.1554 17.8113 35.1554 17.7486 35.1554C17.4909 35.7344 17.3156 36.3035 17.006 36.7864C16.3076 37.8776 15.2811 38.4888 13.9841 38.6221C13.8764 38.6328 13.7696 38.6612 13.6628 38.6809H13.5159ZM13.5893 31.629C11.9652 31.6329 10.6565 32.9475 10.6565 34.5755C10.6565 36.1928 11.9858 37.5132 13.607 37.5034C15.2125 37.4936 16.5172 36.183 16.5211 34.5755C16.5242 32.9495 15.2057 31.6251 13.5893 31.629Z" fill="white"></path><path d="M22.683 1.07031C23.0003 1.15455 23.3226 1.22312 23.6321 1.32696C24.0435 1.46507 24.2258 1.77266 24.1209 2.0969C24.0054 2.45248 23.686 2.57785 23.2492 2.43875C21.7023 1.94604 20.1939 2.63173 19.6541 4.08637C19.278 5.10021 19.4601 6.03276 20.1185 6.87911C20.1782 6.95648 20.2517 7.02309 20.3105 7.10048C20.5201 7.3777 20.4957 7.71466 20.2546 7.92527C20.0294 8.12118 19.6933 8.11727 19.4572 7.89C18.9537 7.40415 18.6216 6.81249 18.4317 6.13954C18.3993 6.02395 18.368 5.90737 18.3307 5.7722H17.886C12.4505 5.7722 7.0149 5.7722 1.57933 5.7722C1.45688 5.7722 1.33345 5.78003 1.21297 5.76534C0.896568 5.72518 0.667353 5.46657 0.688902 5.16389C0.712412 4.84063 0.899508 4.6506 1.21786 4.60457C1.33737 4.58693 1.46178 4.59771 1.58422 4.59771C7.00804 4.59771 12.4309 4.59771 17.8546 4.59771H18.2926C18.3543 4.34497 18.3934 4.11577 18.4669 3.89927C18.9842 2.38096 20.0294 1.4592 21.6015 1.14084C21.6701 1.12713 21.7357 1.0948 21.8023 1.07129C22.0952 1.07129 22.39 1.07031 22.683 1.07031Z" fill="white"></path><path d="M38.2331 5.39313C38.0254 5.68994 37.7414 5.7683 37.3829 5.76733C34.0357 5.75655 30.6895 5.76047 27.3424 5.76047C27.2326 5.76047 27.12 5.77125 27.0132 5.75068C26.6988 5.69092 26.5068 5.49697 26.5078 5.17176C26.5078 4.84654 26.6988 4.65258 27.0142 4.59381C27.121 4.57422 27.2336 4.585 27.3433 4.585C30.6905 4.585 34.0367 4.58891 37.3838 4.57813C37.7414 4.57717 38.0264 4.65356 38.2331 4.95233V5.39313Z" fill="white"></path><path d="M8.87678 19.2838C9.72018 19.2838 10.5724 19.2838 11.4256 19.2838C11.548 19.2838 11.6705 19.2789 11.7919 19.2858C12.1652 19.3044 12.411 19.5423 12.4081 19.8754C12.4061 20.2075 12.1583 20.4525 11.7831 20.4564C10.9407 20.4652 10.0973 20.4593 9.25391 20.4603C9.12167 20.4603 8.99041 20.4603 8.866 20.4603C8.291 23.2325 6.00962 24.162 4.35024 23.9622C2.25006 23.7084 0.69452 22.0001 0.679828 19.9588C0.663175 17.8057 2.13349 16.1062 4.28853 15.7868C6.39066 15.4752 8.15876 16.8123 8.87678 19.2838ZM7.71796 19.8824C7.72187 18.2709 6.42102 16.9457 4.82532 16.9338C3.18162 16.9211 1.85529 18.2367 1.85432 19.8793C1.85334 21.483 3.16693 22.8043 4.76656 22.8092C6.39261 22.8142 7.71306 21.5045 7.71796 19.8824Z" fill="white"></path><mask id="mask0_4924_127" style="mask-type:luminance" maskUnits="userSpaceOnUse" x="-1" y="-1" width="41" height="42"><path d="M39.671 -0.367188H-0.773438V40.0773H39.671V-0.367188Z" fill="white"></path><path d="M37.4163 38.6926C37.1293 38.3036 36.8648 37.8953 36.5494 37.5319C35.9038 36.7864 35.8676 36.0145 36.1222 35.0653C36.6414 33.1307 37.1175 31.1578 37.0283 29.1379C36.9519 27.4062 36.7032 25.6821 36.5053 23.9571C36.3406 22.524 36.1429 21.0938 35.9499 19.6637C35.9126 19.3865 35.8422 19.1112 35.7627 18.8428C35.5042 17.974 34.8841 17.5645 33.973 17.4753C34.03 18.0229 34.1103 18.5509 34.1338 19.0818C34.1602 19.6794 34.1523 20.2799 34.1298 20.8783C34.1132 21.3152 33.8634 21.5414 33.4951 21.515C33.1405 21.4896 32.9309 21.2133 32.9651 20.7765C33.0974 19.1044 32.8065 17.4862 32.3587 15.8875C32.3059 15.6994 32.2373 15.5162 32.1639 15.335C31.8044 14.4534 30.9453 14.0175 29.9579 14.2399C30.0352 15.095 30.1157 15.9561 30.19 16.8171C30.2919 17.9877 30.3939 19.1583 30.4869 20.3288C30.5162 20.706 30.2958 20.9713 29.9628 20.9988C29.618 21.0282 29.3643 20.8275 29.328 20.4405C29.2036 19.1122 29.0979 17.7829 28.9813 16.4537C28.9058 15.5877 28.8353 14.7218 28.7423 13.8578C28.6913 13.3818 28.5493 12.9165 28.0478 12.7352C27.458 12.5217 26.8635 12.5629 26.3325 12.9312C26.0651 13.1163 26.0318 13.4131 26.0475 13.7217C26.1356 15.3968 26.2219 17.0707 26.3032 18.7459C26.3452 19.602 26.3805 20.4581 26.4099 21.3142C26.4255 21.7717 26.2022 22.0509 25.8398 22.0587C25.4793 22.0665 25.2619 21.7961 25.2373 21.3358C25.0171 17.2295 24.8104 13.1222 24.5605 9.01684C24.4851 7.77378 24.3078 6.53464 24.1364 5.2994C24.0188 4.44915 23.5652 4.35708 22.8247 4.80278C22.7298 4.86057 22.668 5.0457 22.6641 5.17403C22.6239 6.51995 22.5681 7.86585 22.5739 9.21177C22.5858 12.1377 22.67 15.0637 22.6493 17.9887C22.6347 20.1299 22.5005 22.2693 22.4182 24.4097C22.4084 24.6545 22.4026 24.8993 22.3781 25.1433C22.3438 25.4901 22.09 25.7105 21.7659 25.6929C21.4611 25.6762 21.2222 25.444 21.2212 25.112C21.2212 24.7329 21.2751 24.3538 21.2712 23.9756C21.2692 23.8385 21.1888 23.6867 21.1075 23.5673C20.7314 23.0158 20.2721 22.5092 19.9722 21.9206C19.1572 20.3219 17.832 19.4178 16.1589 18.9633C15.8817 18.8879 15.5447 18.928 15.2606 19.0073C14.7855 19.1396 14.6357 19.5217 14.8795 19.9507C15.0901 20.32 15.3253 20.6884 15.6123 20.9998C17.0777 22.5955 18.0366 24.4586 18.7615 26.4931C19.1543 27.5971 19.8077 28.612 20.3788 29.6474C20.9215 30.6318 21.5905 31.5536 22.0597 32.5693C22.6122 33.7645 23.487 34.5921 24.5664 35.2583C24.8886 35.4571 25.2197 35.6394 25.5479 35.8274C25.923 36.0419 26.0494 36.3593 25.881 36.6727C25.7154 36.9823 25.3588 37.0773 24.9964 36.8559C24.2892 36.423 23.579 35.9891 22.905 35.5071C22.2008 35.0035 21.6846 34.3346 21.2712 33.5597C20.6207 32.3421 19.9302 31.1441 19.2023 29.9725C18.4627 28.7824 17.8457 27.5412 17.4048 26.2121C16.9131 24.7299 16.155 23.4056 15.1284 22.2271C14.712 21.7492 14.3065 21.2495 13.9754 20.7109C13.1144 19.308 13.8745 17.8496 15.5191 17.7506C15.9718 17.7232 16.4606 17.7751 16.8867 17.923C18.7557 18.5734 20.2553 19.6803 21.0909 21.5474C21.136 21.6473 21.1938 21.7414 21.2447 21.8393C21.2614 21.8716 21.2751 21.9059 21.2898 21.9392C21.3181 21.9294 21.3466 21.9206 21.3759 21.9108C21.3916 21.6267 21.4201 21.3427 21.4201 21.0596C21.421 18.6488 21.4152 16.2382 21.4161 13.8275C21.4181 11.2933 21.4181 8.75921 21.4367 6.22509C21.4406 5.66381 21.5141 5.10349 21.567 4.54418C21.5768 4.44034 21.6131 4.31496 21.6826 4.24344C22.2713 3.63613 22.9736 3.24331 23.8395 3.39025C24.6731 3.5313 25.1345 4.11317 25.2461 4.92719C25.4401 6.33186 25.6018 7.74145 25.7517 9.15104C25.8418 10.0003 25.8829 10.8545 25.9476 11.7283C26.3051 11.6421 26.6273 11.5402 26.9575 11.4893C28.1379 11.3071 29.2379 11.7322 29.715 12.8606C29.7492 12.9409 29.9098 12.9968 30.0186 13.0095C30.4408 13.0605 30.8767 13.0428 31.2881 13.1349C32.16 13.3298 32.8182 13.8314 33.164 14.6767C33.3707 15.1842 33.5381 15.7092 33.7302 16.2441C34.0349 16.2881 34.3766 16.3087 34.7029 16.391C36.0929 16.7407 36.7972 17.729 37.0361 19.0671C37.2311 20.1613 37.3359 21.2712 37.4799 22.375C37.6935 24.0119 37.907 25.6497 38.1196 27.2866C38.1588 27.5863 38.1881 27.888 38.2225 28.1888V30.2458C38.2077 30.2792 38.1823 30.3115 38.1793 30.3468C37.9903 32.2569 37.5896 34.1279 37.1351 35.9891C37.1058 36.1105 37.1566 36.28 37.2252 36.3926C37.5475 36.9216 37.8884 37.4387 38.2225 37.9599V38.6945H37.4163V38.6926Z" fill="black"></path><path d="M13.5081 38.6887C13.0447 38.5867 12.5638 38.5359 12.123 38.3753C10.7535 37.8746 9.87978 36.7835 9.51147 35.1622H9.0932C6.57573 35.1622 4.05825 35.1622 1.54079 35.1622C1.43108 35.1622 1.31941 35.1692 1.21068 35.1563C0.892325 35.1172 0.662129 34.8635 0.68074 34.5598C0.700331 34.2356 0.886448 34.0455 1.20383 33.9945C1.31158 33.9769 1.42325 33.9878 1.53296 33.9878C4.05043 33.9878 6.56789 33.9878 9.08535 33.9878H9.51048C9.73579 32.8074 10.3088 31.8601 11.3021 31.192C12.0348 30.6993 12.8459 30.4604 13.7265 30.5053C15.7356 30.6073 17.1422 31.8494 17.6536 33.9878C18.2755 33.9878 18.9083 33.9867 19.5412 33.9888C19.6626 33.9888 19.7909 33.9818 19.9036 34.0191C20.1926 34.1131 20.3415 34.3258 20.32 34.6333C20.2983 34.936 20.0574 35.1524 19.7185 35.1593C19.1689 35.17 18.6184 35.1632 18.0688 35.1632C17.9357 35.1632 17.8035 35.1632 17.7408 35.1632C17.4831 35.7422 17.3078 36.3113 16.9982 36.7942C16.2998 37.8854 15.2733 38.4966 13.9763 38.6299C13.8685 38.6406 13.7618 38.6691 13.655 38.6887H13.5081ZM13.5815 31.6368C11.9574 31.6407 10.6487 32.9553 10.6487 34.5833C10.6487 36.2006 11.978 37.521 13.5992 37.5112C15.2046 37.5014 16.5094 36.1908 16.5133 34.5833C16.5163 32.9573 15.1979 31.6329 13.5815 31.6368Z" fill="black"></path><path d="M22.6752 1.07812C22.9925 1.16237 23.3148 1.23094 23.6243 1.33477C24.0357 1.47288 24.218 1.78047 24.1131 2.10471C23.9976 2.46029 23.6782 2.58567 23.2414 2.44657C21.6945 1.95385 20.1861 2.63954 19.6463 4.09419C19.2702 5.10803 19.4523 6.04057 20.1107 6.88692C20.1704 6.9643 20.2439 7.0309 20.3027 7.10829C20.5123 7.38551 20.4878 7.72247 20.2468 7.93309C20.0216 8.129 19.6855 8.12508 19.4494 7.89781C18.9459 7.41196 18.6138 6.8203 18.4239 6.14735C18.3915 6.03176 18.3602 5.91518 18.3229 5.78001H17.8782C12.4427 5.78001 7.00709 5.78001 1.57151 5.78001C1.44907 5.78001 1.32564 5.78784 1.20515 5.77315C0.888756 5.73299 0.65954 5.47438 0.68109 5.1717C0.704599 4.84845 0.891695 4.65841 1.21005 4.61238C1.32956 4.59474 1.45396 4.60552 1.57641 4.60552C7.00023 4.60552 12.4231 4.60552 17.8468 4.60552H18.2848C18.3465 4.35278 18.3856 4.12358 18.4591 3.90709C18.9764 2.38877 20.0216 1.46702 21.5937 1.14865C21.6623 1.13494 21.7279 1.10261 21.7945 1.0791C22.0874 1.0791 22.3822 1.07812 22.6752 1.07812Z" fill="black"></path><path d="M38.2253 5.40095C38.0176 5.69775 37.7336 5.77611 37.3751 5.77514C34.0279 5.76437 30.6817 5.76828 27.3346 5.76828C27.2248 5.76828 27.1122 5.77906 27.0054 5.75849C26.691 5.69873 26.499 5.50479 26.5 5.17957C26.5 4.85435 26.691 4.66039 27.0064 4.60162C27.1132 4.58203 27.2258 4.59281 27.3355 4.59281C30.6827 4.59281 34.0289 4.59672 37.3759 4.58595C37.7336 4.58498 38.0186 4.66138 38.2253 4.96014V5.40095Z" fill="black"></path><path d="M8.86897 19.2916C9.71236 19.2916 10.5646 19.2916 11.4178 19.2916C11.5402 19.2916 11.6627 19.2867 11.7841 19.2936C12.1573 19.3123 12.4032 19.5502 12.4003 19.8832C12.3983 20.2153 12.1505 20.4603 11.7753 20.4642C10.9329 20.473 10.0895 20.4671 9.2461 20.4681C9.11386 20.4681 8.9826 20.4681 8.85819 20.4681C8.28319 23.2403 6.0018 24.1698 4.34243 23.97C2.24225 23.7162 0.686708 22.0079 0.672015 19.9666C0.655362 17.8135 2.12568 16.114 4.28072 15.7946C6.38285 15.483 8.15095 16.8202 8.86897 19.2916ZM7.71015 19.8902C7.71406 18.2788 6.41321 16.9535 4.8175 16.9416C3.17381 16.9289 1.84748 18.2445 1.84651 19.8871C1.84553 21.4908 3.15912 22.8121 4.75874 22.8171C6.3848 22.822 7.70525 21.5123 7.71015 19.8902Z" fill="black"></path></mask><g mask="url(#mask0_4924_127)"><path d="M37.4163 38.6848C37.1293 38.2958 36.8648 37.8875 36.5494 37.5241C35.9038 36.7786 35.8676 36.0067 36.1222 35.0575C36.6414 33.1228 37.1175 31.15 37.0283 29.1301C36.9519 27.3984 36.7032 25.6743 36.5053 23.9493C36.3406 22.5161 36.1429 21.086 35.9499 19.6559C35.9126 19.3787 35.8422 19.1034 35.7627 18.835C35.5042 17.9661 34.8841 17.5566 33.973 17.4675C34.03 18.0151 34.1103 18.5431 34.1338 19.074C34.1602 19.6716 34.1523 20.2721 34.1298 20.8705C34.1132 21.3074 33.8634 21.5336 33.4951 21.5072C33.1405 21.4818 32.9309 21.2055 32.9651 20.7687C33.0974 19.0966 32.8065 17.4784 32.3587 15.8796C32.3059 15.6916 32.2373 15.5084 32.1639 15.3271C31.8044 14.4456 30.9453 14.0097 29.9579 14.232C30.0352 15.0872 30.1157 15.9483 30.19 16.8093C30.2919 17.9799 30.3939 19.1504 30.4869 20.321C30.5162 20.6982 30.2958 20.9635 29.9628 20.991C29.618 21.0204 29.3643 20.8196 29.328 20.4327C29.2036 19.1044 29.0979 17.775 28.9813 16.4459C28.9058 15.5799 28.8353 14.714 28.7423 13.85C28.6913 13.3739 28.5493 12.9087 28.0478 12.7274C27.458 12.5139 26.8635 12.555 26.3325 12.9233C26.0651 13.1085 26.0318 13.4053 26.0475 13.7139C26.1356 15.389 26.2219 17.0629 26.3032 18.7381C26.3452 19.5942 26.3805 20.4503 26.4099 21.3064C26.4255 21.7639 26.2022 22.0431 25.8398 22.0509C25.4793 22.0587 25.2619 21.7883 25.2373 21.3279C25.0171 17.2217 24.8104 13.1144 24.5605 9.00903C24.4851 7.76597 24.3078 6.52682 24.1364 5.29159C24.0188 4.44133 23.5652 4.34927 22.8247 4.79496C22.7298 4.85276 22.668 5.03789 22.6641 5.16621C22.6239 6.51213 22.5681 7.85804 22.5739 9.20396C22.5858 12.1299 22.67 15.0559 22.6493 17.9809C22.6347 20.1221 22.5005 22.2615 22.4182 24.4019C22.4084 24.6467 22.4026 24.8915 22.3781 25.1355C22.3438 25.4823 22.09 25.7027 21.7659 25.6851C21.4611 25.6684 21.2222 25.4362 21.2212 25.1042C21.2212 24.7251 21.2751 24.346 21.2712 23.9678C21.2692 23.8307 21.1888 23.6789 21.1075 23.5595C20.7314 23.008 20.2721 22.5014 19.9722 21.9128C19.1572 20.3141 17.832 19.41 16.1589 18.9554C15.8817 18.88 15.5447 18.9202 15.2606 18.9995C14.7855 19.1318 14.6357 19.5139 14.8795 19.9429C15.0901 20.3122 15.3253 20.6805 15.6123 20.992C17.0777 22.5876 18.0366 24.4508 18.7615 26.4853C19.1543 27.5893 19.8077 28.6042 20.3788 29.6396C20.9215 30.624 21.5905 31.5458 22.0597 32.5615C22.6122 33.7567 23.487 34.5843 24.5664 35.2505C24.8886 35.4493 25.2197 35.6316 25.5479 35.8196C25.923 36.0341 26.0494 36.3515 25.881 36.6649C25.7154 36.9745 25.3588 37.0695 24.9964 36.8481C24.2892 36.4152 23.579 35.9813 22.905 35.4992C22.2008 34.9957 21.6846 34.3268 21.2712 33.5518C20.6207 32.3343 19.9302 31.1363 19.2023 29.9647C18.4627 28.7746 17.8457 27.5334 17.4048 26.2042C16.9131 24.7221 16.155 23.3978 15.1284 22.2193C14.712 21.7413 14.3065 21.2417 13.9754 20.7031C13.1144 19.3002 13.8745 17.8418 15.5191 17.7428C15.9718 17.7154 16.4606 17.7672 16.8867 17.9152C18.7557 18.5656 20.2553 19.6725 21.0909 21.5396C21.136 21.6395 21.1938 21.7335 21.2447 21.8315C21.2614 21.8638 21.2751 21.8981 21.2898 21.9314C21.3181 21.9216 21.3466 21.9128 21.3759 21.903C21.3916 21.6189 21.4201 21.3349 21.4201 21.0518C21.421 18.641 21.4152 16.2304 21.4161 13.8196C21.4181 11.2855 21.4181 8.7514 21.4367 6.21728C21.4406 5.656 21.5141 5.09568 21.567 4.53636C21.5768 4.43252 21.6131 4.30714 21.6826 4.23563C22.2713 3.62831 22.9736 3.2355 23.8395 3.38244C24.6731 3.52349 25.1345 4.10536 25.2461 4.91937C25.4401 6.32405 25.6018 7.73364 25.7517 9.14323C25.8418 9.99251 25.8829 10.8467 25.9476 11.7205C26.3051 11.6342 26.6273 11.5324 26.9575 11.4814C28.1379 11.2992 29.2379 11.7244 29.715 12.8528C29.7492 12.9331 29.9098 12.989 30.0186 13.0017C30.4408 13.0526 30.8767 13.035 31.2881 13.1271C32.16 13.322 32.8182 13.8236 33.164 14.6689C33.3707 15.1763 33.5381 15.7014 33.7302 16.2363C34.0349 16.2803 34.3766 16.3008 34.7029 16.3832C36.0929 16.7329 36.7972 17.7212 37.0361 19.0593C37.2311 20.1535 37.3359 21.2634 37.4799 22.3672C37.6935 24.0041 37.907 25.6419 38.1196 27.2788C38.1588 27.5785 38.1881 27.8802 38.2225 28.181V30.238C38.2077 30.2714 38.1823 30.3037 38.1793 30.339C37.9903 32.2491 37.5896 34.1201 37.1351 35.9813C37.1058 36.1027 37.1566 36.2722 37.2252 36.3848C37.5475 36.9138 37.8884 37.4309 38.2225 37.9521V38.6867H37.4163V38.6848Z" stroke="white" stroke-width="0.494935"></path></g><mask id="mask1_4924_127" style="mask-type:luminance" maskUnits="userSpaceOnUse" x="-1" y="-1" width="41" height="42"><path d="M39.671 -0.367188H-0.773438V40.0773H39.671V-0.367188Z" fill="white"></path><path d="M37.4163 38.6926C37.1293 38.3036 36.8648 37.8953 36.5494 37.5319C35.9038 36.7864 35.8676 36.0145 36.1222 35.0653C36.6414 33.1307 37.1175 31.1578 37.0283 29.1379C36.9519 27.4062 36.7032 25.6821 36.5053 23.9571C36.3406 22.524 36.1429 21.0938 35.9499 19.6637C35.9126 19.3865 35.8422 19.1112 35.7627 18.8428C35.5042 17.974 34.8841 17.5645 33.973 17.4753C34.03 18.0229 34.1103 18.5509 34.1338 19.0818C34.1602 19.6794 34.1523 20.2799 34.1298 20.8783C34.1132 21.3152 33.8634 21.5414 33.4951 21.515C33.1405 21.4896 32.9309 21.2133 32.9651 20.7765C33.0974 19.1044 32.8065 17.4862 32.3587 15.8875C32.3059 15.6994 32.2373 15.5162 32.1639 15.335C31.8044 14.4534 30.9453 14.0175 29.9579 14.2399C30.0352 15.095 30.1157 15.9561 30.19 16.8171C30.2919 17.9877 30.3939 19.1583 30.4869 20.3288C30.5162 20.706 30.2958 20.9713 29.9628 20.9988C29.618 21.0282 29.3643 20.8275 29.328 20.4405C29.2036 19.1122 29.0979 17.7829 28.9813 16.4537C28.9058 15.5877 28.8353 14.7218 28.7423 13.8578C28.6913 13.3818 28.5493 12.9165 28.0478 12.7352C27.458 12.5217 26.8635 12.5629 26.3325 12.9312C26.0651 13.1163 26.0318 13.4131 26.0475 13.7217C26.1356 15.3968 26.2219 17.0707 26.3032 18.7459C26.3452 19.602 26.3805 20.4581 26.4099 21.3142C26.4255 21.7717 26.2022 22.0509 25.8398 22.0587C25.4793 22.0665 25.2619 21.7961 25.2373 21.3358C25.0171 17.2295 24.8104 13.1222 24.5605 9.01684C24.4851 7.77378 24.3078 6.53464 24.1364 5.2994C24.0188 4.44915 23.5652 4.35708 22.8247 4.80278C22.7298 4.86057 22.668 5.0457 22.6641 5.17403C22.6239 6.51995 22.5681 7.86585 22.5739 9.21177C22.5858 12.1377 22.67 15.0637 22.6493 17.9887C22.6347 20.1299 22.5005 22.2693 22.4182 24.4097C22.4084 24.6545 22.4026 24.8993 22.3781 25.1433C22.3438 25.4901 22.09 25.7105 21.7659 25.6929C21.4611 25.6762 21.2222 25.444 21.2212 25.112C21.2212 24.7329 21.2751 24.3538 21.2712 23.9756C21.2692 23.8385 21.1888 23.6867 21.1075 23.5673C20.7314 23.0158 20.2721 22.5092 19.9722 21.9206C19.1572 20.3219 17.832 19.4178 16.1589 18.9633C15.8817 18.8879 15.5447 18.928 15.2606 19.0073C14.7855 19.1396 14.6357 19.5217 14.8795 19.9507C15.0901 20.32 15.3253 20.6884 15.6123 20.9998C17.0777 22.5955 18.0366 24.4586 18.7615 26.4931C19.1543 27.5971 19.8077 28.612 20.3788 29.6474C20.9215 30.6318 21.5905 31.5536 22.0597 32.5693C22.6122 33.7645 23.487 34.5921 24.5664 35.2583C24.8886 35.4571 25.2197 35.6394 25.5479 35.8274C25.923 36.0419 26.0494 36.3593 25.881 36.6727C25.7154 36.9823 25.3588 37.0773 24.9964 36.8559C24.2892 36.423 23.579 35.9891 22.905 35.5071C22.2008 35.0035 21.6846 34.3346 21.2712 33.5597C20.6207 32.3421 19.9302 31.1441 19.2023 29.9725C18.4627 28.7824 17.8457 27.5412 17.4048 26.2121C16.9131 24.7299 16.155 23.4056 15.1284 22.2271C14.712 21.7492 14.3065 21.2495 13.9754 20.7109C13.1144 19.308 13.8745 17.8496 15.5191 17.7506C15.9718 17.7232 16.4606 17.7751 16.8867 17.923C18.7557 18.5734 20.2553 19.6803 21.0909 21.5474C21.136 21.6473 21.1938 21.7414 21.2447 21.8393C21.2614 21.8716 21.2751 21.9059 21.2898 21.9392C21.3181 21.9294 21.3466 21.9206 21.3759 21.9108C21.3916 21.6267 21.4201 21.3427 21.4201 21.0596C21.421 18.6488 21.4152 16.2382 21.4161 13.8275C21.4181 11.2933 21.4181 8.75921 21.4367 6.22509C21.4406 5.66381 21.5141 5.10349 21.567 4.54418C21.5768 4.44034 21.6131 4.31496 21.6826 4.24344C22.2713 3.63613 22.9736 3.24331 23.8395 3.39025C24.6731 3.5313 25.1345 4.11317 25.2461 4.92719C25.4401 6.33186 25.6018 7.74145 25.7517 9.15104C25.8418 10.0003 25.8829 10.8545 25.9476 11.7283C26.3051 11.6421 26.6273 11.5402 26.9575 11.4893C28.1379 11.3071 29.2379 11.7322 29.715 12.8606C29.7492 12.9409 29.9098 12.9968 30.0186 13.0095C30.4408 13.0605 30.8767 13.0428 31.2881 13.1349C32.16 13.3298 32.8182 13.8314 33.164 14.6767C33.3707 15.1842 33.5381 15.7092 33.7302 16.2441C34.0349 16.2881 34.3766 16.3087 34.7029 16.391C36.0929 16.7407 36.7972 17.729 37.0361 19.0671C37.2311 20.1613 37.3359 21.2712 37.4799 22.375C37.6935 24.0119 37.907 25.6497 38.1196 27.2866C38.1588 27.5863 38.1881 27.888 38.2225 28.1888V30.2458C38.2077 30.2792 38.1823 30.3115 38.1793 30.3468C37.9903 32.2569 37.5896 34.1279 37.1351 35.9891C37.1058 36.1105 37.1566 36.28 37.2252 36.3926C37.5475 36.9216 37.8884 37.4387 38.2225 37.9599V38.6945H37.4163V38.6926Z" fill="black"></path><path d="M13.5081 38.6887C13.0447 38.5867 12.5638 38.5359 12.123 38.3753C10.7535 37.8746 9.87978 36.7835 9.51147 35.1622H9.0932C6.57573 35.1622 4.05825 35.1622 1.54079 35.1622C1.43108 35.1622 1.31941 35.1692 1.21068 35.1563C0.892325 35.1172 0.662129 34.8635 0.68074 34.5598C0.700331 34.2356 0.886448 34.0455 1.20383 33.9945C1.31158 33.9769 1.42325 33.9878 1.53296 33.9878C4.05043 33.9878 6.56789 33.9878 9.08535 33.9878H9.51048C9.73579 32.8074 10.3088 31.8601 11.3021 31.192C12.0348 30.6993 12.8459 30.4604 13.7265 30.5053C15.7356 30.6073 17.1422 31.8494 17.6536 33.9878C18.2755 33.9878 18.9083 33.9867 19.5412 33.9888C19.6626 33.9888 19.7909 33.9818 19.9036 34.0191C20.1926 34.1131 20.3415 34.3258 20.32 34.6333C20.2983 34.936 20.0574 35.1524 19.7185 35.1593C19.1689 35.17 18.6184 35.1632 18.0688 35.1632C17.9357 35.1632 17.8035 35.1632 17.7408 35.1632C17.4831 35.7422 17.3078 36.3113 16.9982 36.7942C16.2998 37.8854 15.2733 38.4966 13.9763 38.6299C13.8685 38.6406 13.7618 38.6691 13.655 38.6887H13.5081ZM13.5815 31.6368C11.9574 31.6407 10.6487 32.9553 10.6487 34.5833C10.6487 36.2006 11.978 37.521 13.5992 37.5112C15.2046 37.5014 16.5094 36.1908 16.5133 34.5833C16.5163 32.9573 15.1979 31.6329 13.5815 31.6368Z" fill="black"></path><path d="M22.6752 1.07812C22.9925 1.16237 23.3148 1.23094 23.6243 1.33477C24.0357 1.47288 24.218 1.78047 24.1131 2.10471C23.9976 2.46029 23.6782 2.58567 23.2414 2.44657C21.6945 1.95385 20.1861 2.63954 19.6463 4.09419C19.2702 5.10803 19.4523 6.04057 20.1107 6.88692C20.1704 6.9643 20.2439 7.0309 20.3027 7.10829C20.5123 7.38551 20.4878 7.72247 20.2468 7.93309C20.0216 8.129 19.6855 8.12508 19.4494 7.89781C18.9459 7.41196 18.6138 6.8203 18.4239 6.14735C18.3915 6.03176 18.3602 5.91518 18.3229 5.78001H17.8782C12.4427 5.78001 7.00709 5.78001 1.57151 5.78001C1.44907 5.78001 1.32564 5.78784 1.20515 5.77315C0.888756 5.73299 0.65954 5.47438 0.68109 5.1717C0.704599 4.84845 0.891695 4.65841 1.21005 4.61238C1.32956 4.59474 1.45396 4.60552 1.57641 4.60552C7.00023 4.60552 12.4231 4.60552 17.8468 4.60552H18.2848C18.3465 4.35278 18.3856 4.12358 18.4591 3.90709C18.9764 2.38877 20.0216 1.46702 21.5937 1.14865C21.6623 1.13494 21.7279 1.10261 21.7945 1.0791C22.0874 1.0791 22.3822 1.07812 22.6752 1.07812Z" fill="black"></path><path d="M38.2253 5.40095C38.0176 5.69775 37.7336 5.77611 37.3751 5.77514C34.0279 5.76437 30.6817 5.76828 27.3346 5.76828C27.2248 5.76828 27.1122 5.77906 27.0054 5.75849C26.691 5.69873 26.499 5.50479 26.5 5.17957C26.5 4.85435 26.691 4.66039 27.0064 4.60162C27.1132 4.58203 27.2258 4.59281 27.3355 4.59281C30.6827 4.59281 34.0289 4.59672 37.3759 4.58595C37.7336 4.58498 38.0186 4.66138 38.2253 4.96014V5.40095Z" fill="black"></path><path d="M8.86897 19.2916C9.71236 19.2916 10.5646 19.2916 11.4178 19.2916C11.5402 19.2916 11.6627 19.2867 11.7841 19.2936C12.1573 19.3123 12.4032 19.5502 12.4003 19.8832C12.3983 20.2153 12.1505 20.4603 11.7753 20.4642C10.9329 20.473 10.0895 20.4671 9.2461 20.4681C9.11386 20.4681 8.9826 20.4681 8.85819 20.4681C8.28319 23.2403 6.0018 24.1698 4.34243 23.97C2.24225 23.7162 0.686708 22.0079 0.672015 19.9666C0.655362 17.8135 2.12568 16.114 4.28072 15.7946C6.38285 15.483 8.15095 16.8202 8.86897 19.2916ZM7.71015 19.8902C7.71406 18.2788 6.41321 16.9535 4.8175 16.9416C3.17381 16.9289 1.84748 18.2445 1.84651 19.8871C1.84553 21.4908 3.15912 22.8121 4.75874 22.8171C6.3848 22.822 7.70525 21.5123 7.71015 19.8902Z" fill="black"></path></mask><g mask="url(#mask1_4924_127)"><path d="M13.5159 38.6809C13.0525 38.5789 12.5716 38.5281 12.1308 38.3674C10.7614 37.8668 9.8876 36.7757 9.51928 35.1544H9.10101C6.58355 35.1544 4.06607 35.1544 1.5486 35.1544C1.4389 35.1544 1.32723 35.1614 1.21849 35.1485C0.900138 35.1094 0.669941 34.8557 0.688553 34.5519C0.708144 34.2278 0.89426 34.0377 1.21164 33.9867C1.31939 33.9691 1.43106 33.9799 1.54077 33.9799C4.05824 33.9799 6.5757 33.9799 9.09317 33.9799H9.5183C9.7436 32.7995 10.3166 31.8523 11.3099 31.1842C12.0426 30.6915 12.8537 30.4526 13.7343 30.4975C15.7434 30.5995 17.15 31.8416 17.6614 33.9799C18.2833 33.9799 18.9162 33.9789 19.549 33.981C19.6704 33.981 19.7987 33.974 19.9114 34.0113C20.2004 34.1053 20.3493 34.3179 20.3278 34.6255C20.3061 34.9282 20.0652 35.1446 19.7263 35.1515C19.1767 35.1622 18.6263 35.1554 18.0766 35.1554C17.9435 35.1554 17.8113 35.1554 17.7486 35.1554C17.4909 35.7344 17.3156 36.3035 17.006 36.7864C16.3076 37.8776 15.2811 38.4888 13.9841 38.6221C13.8764 38.6328 13.7696 38.6612 13.6628 38.6809H13.5159ZM13.5893 31.629C11.9652 31.6329 10.6565 32.9475 10.6565 34.5755C10.6565 36.1928 11.9858 37.5132 13.607 37.5034C15.2125 37.4936 16.5172 36.183 16.5211 34.5755C16.5242 32.9495 15.2057 31.6251 13.5893 31.629Z" stroke="white"></path></g><mask id="mask2_4924_127" style="mask-type:luminance" maskUnits="userSpaceOnUse" x="-1" y="-1" width="41" height="42"><path d="M39.671 -0.367188H-0.773438V40.0773H39.671V-0.367188Z" fill="white"></path><path d="M37.4163 38.6926C37.1293 38.3036 36.8648 37.8953 36.5494 37.5319C35.9038 36.7864 35.8676 36.0145 36.1222 35.0653C36.6414 33.1307 37.1175 31.1578 37.0283 29.1379C36.9519 27.4062 36.7032 25.6821 36.5053 23.9571C36.3406 22.524 36.1429 21.0938 35.9499 19.6637C35.9126 19.3865 35.8422 19.1112 35.7627 18.8428C35.5042 17.974 34.8841 17.5645 33.973 17.4753C34.03 18.0229 34.1103 18.5509 34.1338 19.0818C34.1602 19.6794 34.1523 20.2799 34.1298 20.8783C34.1132 21.3152 33.8634 21.5414 33.4951 21.515C33.1405 21.4896 32.9309 21.2133 32.9651 20.7765C33.0974 19.1044 32.8065 17.4862 32.3587 15.8875C32.3059 15.6994 32.2373 15.5162 32.1639 15.335C31.8044 14.4534 30.9453 14.0175 29.9579 14.2399C30.0352 15.095 30.1157 15.9561 30.19 16.8171C30.2919 17.9877 30.3939 19.1583 30.4869 20.3288C30.5162 20.706 30.2958 20.9713 29.9628 20.9988C29.618 21.0282 29.3643 20.8275 29.328 20.4405C29.2036 19.1122 29.0979 17.7829 28.9813 16.4537C28.9058 15.5877 28.8353 14.7218 28.7423 13.8578C28.6913 13.3818 28.5493 12.9165 28.0478 12.7352C27.458 12.5217 26.8635 12.5629 26.3325 12.9312C26.0651 13.1163 26.0318 13.4131 26.0475 13.7217C26.1356 15.3968 26.2219 17.0707 26.3032 18.7459C26.3452 19.602 26.3805 20.4581 26.4099 21.3142C26.4255 21.7717 26.2022 22.0509 25.8398 22.0587C25.4793 22.0665 25.2619 21.7961 25.2373 21.3358C25.0171 17.2295 24.8104 13.1222 24.5605 9.01684C24.4851 7.77378 24.3078 6.53464 24.1364 5.2994C24.0188 4.44915 23.5652 4.35708 22.8247 4.80278C22.7298 4.86057 22.668 5.0457 22.6641 5.17403C22.6239 6.51995 22.5681 7.86585 22.5739 9.21177C22.5858 12.1377 22.67 15.0637 22.6493 17.9887C22.6347 20.1299 22.5005 22.2693 22.4182 24.4097C22.4084 24.6545 22.4026 24.8993 22.3781 25.1433C22.3438 25.4901 22.09 25.7105 21.7659 25.6929C21.4611 25.6762 21.2222 25.444 21.2212 25.112C21.2212 24.7329 21.2751 24.3538 21.2712 23.9756C21.2692 23.8385 21.1888 23.6867 21.1075 23.5673C20.7314 23.0158 20.2721 22.5092 19.9722 21.9206C19.1572 20.3219 17.832 19.4178 16.1589 18.9633C15.8817 18.8879 15.5447 18.928 15.2606 19.0073C14.7855 19.1396 14.6357 19.5217 14.8795 19.9507C15.0901 20.32 15.3253 20.6884 15.6123 20.9998C17.0777 22.5955 18.0366 24.4586 18.7615 26.4931C19.1543 27.5971 19.8077 28.612 20.3788 29.6474C20.9215 30.6318 21.5905 31.5536 22.0597 32.5693C22.6122 33.7645 23.487 34.5921 24.5664 35.2583C24.8886 35.4571 25.2197 35.6394 25.5479 35.8274C25.923 36.0419 26.0494 36.3593 25.881 36.6727C25.7154 36.9823 25.3588 37.0773 24.9964 36.8559C24.2892 36.423 23.579 35.9891 22.905 35.5071C22.2008 35.0035 21.6846 34.3346 21.2712 33.5597C20.6207 32.3421 19.9302 31.1441 19.2023 29.9725C18.4627 28.7824 17.8457 27.5412 17.4048 26.2121C16.9131 24.7299 16.155 23.4056 15.1284 22.2271C14.712 21.7492 14.3065 21.2495 13.9754 20.7109C13.1144 19.308 13.8745 17.8496 15.5191 17.7506C15.9718 17.7232 16.4606 17.7751 16.8867 17.923C18.7557 18.5734 20.2553 19.6803 21.0909 21.5474C21.136 21.6473 21.1938 21.7414 21.2447 21.8393C21.2614 21.8716 21.2751 21.9059 21.2898 21.9392C21.3181 21.9294 21.3466 21.9206 21.3759 21.9108C21.3916 21.6267 21.4201 21.3427 21.4201 21.0596C21.421 18.6488 21.4152 16.2382 21.4161 13.8275C21.4181 11.2933 21.4181 8.75921 21.4367 6.22509C21.4406 5.66381 21.5141 5.10349 21.567 4.54418C21.5768 4.44034 21.6131 4.31496 21.6826 4.24344C22.2713 3.63613 22.9736 3.24331 23.8395 3.39025C24.6731 3.5313 25.1345 4.11317 25.2461 4.92719C25.4401 6.33186 25.6018 7.74145 25.7517 9.15104C25.8418 10.0003 25.8829 10.8545 25.9476 11.7283C26.3051 11.6421 26.6273 11.5402 26.9575 11.4893C28.1379 11.3071 29.2379 11.7322 29.715 12.8606C29.7492 12.9409 29.9098 12.9968 30.0186 13.0095C30.4408 13.0605 30.8767 13.0428 31.2881 13.1349C32.16 13.3298 32.8182 13.8314 33.164 14.6767C33.3707 15.1842 33.5381 15.7092 33.7302 16.2441C34.0349 16.2881 34.3766 16.3087 34.7029 16.391C36.0929 16.7407 36.7972 17.729 37.0361 19.0671C37.2311 20.1613 37.3359 21.2712 37.4799 22.375C37.6935 24.0119 37.907 25.6497 38.1196 27.2866C38.1588 27.5863 38.1881 27.888 38.2225 28.1888V30.2458C38.2077 30.2792 38.1823 30.3115 38.1793 30.3468C37.9903 32.2569 37.5896 34.1279 37.1351 35.9891C37.1058 36.1105 37.1566 36.28 37.2252 36.3926C37.5475 36.9216 37.8884 37.4387 38.2225 37.9599V38.6945H37.4163V38.6926Z" fill="black"></path><path d="M13.5081 38.6887C13.0447 38.5867 12.5638 38.5359 12.123 38.3753C10.7535 37.8746 9.87978 36.7835 9.51147 35.1622H9.0932C6.57573 35.1622 4.05825 35.1622 1.54079 35.1622C1.43108 35.1622 1.31941 35.1692 1.21068 35.1563C0.892325 35.1172 0.662129 34.8635 0.68074 34.5598C0.700331 34.2356 0.886448 34.0455 1.20383 33.9945C1.31158 33.9769 1.42325 33.9878 1.53296 33.9878C4.05043 33.9878 6.56789 33.9878 9.08535 33.9878H9.51048C9.73579 32.8074 10.3088 31.8601 11.3021 31.192C12.0348 30.6993 12.8459 30.4604 13.7265 30.5053C15.7356 30.6073 17.1422 31.8494 17.6536 33.9878C18.2755 33.9878 18.9083 33.9867 19.5412 33.9888C19.6626 33.9888 19.7909 33.9818 19.9036 34.0191C20.1926 34.1131 20.3415 34.3258 20.32 34.6333C20.2983 34.936 20.0574 35.1524 19.7185 35.1593C19.1689 35.17 18.6184 35.1632 18.0688 35.1632C17.9357 35.1632 17.8035 35.1632 17.7408 35.1632C17.4831 35.7422 17.3078 36.3113 16.9982 36.7942C16.2998 37.8854 15.2733 38.4966 13.9763 38.6299C13.8685 38.6406 13.7618 38.6691 13.655 38.6887H13.5081ZM13.5815 31.6368C11.9574 31.6407 10.6487 32.9553 10.6487 34.5833C10.6487 36.2006 11.978 37.521 13.5992 37.5112C15.2046 37.5014 16.5094 36.1908 16.5133 34.5833C16.5163 32.9573 15.1979 31.6329 13.5815 31.6368Z" fill="black"></path><path d="M22.6752 1.07812C22.9925 1.16237 23.3148 1.23094 23.6243 1.33477C24.0357 1.47288 24.218 1.78047 24.1131 2.10471C23.9976 2.46029 23.6782 2.58567 23.2414 2.44657C21.6945 1.95385 20.1861 2.63954 19.6463 4.09419C19.2702 5.10803 19.4523 6.04057 20.1107 6.88692C20.1704 6.9643 20.2439 7.0309 20.3027 7.10829C20.5123 7.38551 20.4878 7.72247 20.2468 7.93309C20.0216 8.129 19.6855 8.12508 19.4494 7.89781C18.9459 7.41196 18.6138 6.8203 18.4239 6.14735C18.3915 6.03176 18.3602 5.91518 18.3229 5.78001H17.8782C12.4427 5.78001 7.00709 5.78001 1.57151 5.78001C1.44907 5.78001 1.32564 5.78784 1.20515 5.77315C0.888756 5.73299 0.65954 5.47438 0.68109 5.1717C0.704599 4.84845 0.891695 4.65841 1.21005 4.61238C1.32956 4.59474 1.45396 4.60552 1.57641 4.60552C7.00023 4.60552 12.4231 4.60552 17.8468 4.60552H18.2848C18.3465 4.35278 18.3856 4.12358 18.4591 3.90709C18.9764 2.38877 20.0216 1.46702 21.5937 1.14865C21.6623 1.13494 21.7279 1.10261 21.7945 1.0791C22.0874 1.0791 22.3822 1.07812 22.6752 1.07812Z" fill="black"></path><path d="M38.2253 5.40095C38.0176 5.69775 37.7336 5.77611 37.3751 5.77514C34.0279 5.76437 30.6817 5.76828 27.3346 5.76828C27.2248 5.76828 27.1122 5.77906 27.0054 5.75849C26.691 5.69873 26.499 5.50479 26.5 5.17957C26.5 4.85435 26.691 4.66039 27.0064 4.60162C27.1132 4.58203 27.2258 4.59281 27.3355 4.59281C30.6827 4.59281 34.0289 4.59672 37.3759 4.58595C37.7336 4.58498 38.0186 4.66138 38.2253 4.96014V5.40095Z" fill="black"></path><path d="M8.86897 19.2916C9.71236 19.2916 10.5646 19.2916 11.4178 19.2916C11.5402 19.2916 11.6627 19.2867 11.7841 19.2936C12.1573 19.3123 12.4032 19.5502 12.4003 19.8832C12.3983 20.2153 12.1505 20.4603 11.7753 20.4642C10.9329 20.473 10.0895 20.4671 9.2461 20.4681C9.11386 20.4681 8.9826 20.4681 8.85819 20.4681C8.28319 23.2403 6.0018 24.1698 4.34243 23.97C2.24225 23.7162 0.686708 22.0079 0.672015 19.9666C0.655362 17.8135 2.12568 16.114 4.28072 15.7946C6.38285 15.483 8.15095 16.8202 8.86897 19.2916ZM7.71015 19.8902C7.71406 18.2788 6.41321 16.9535 4.8175 16.9416C3.17381 16.9289 1.84748 18.2445 1.84651 19.8871C1.84553 21.4908 3.15912 22.8121 4.75874 22.8171C6.3848 22.822 7.70525 21.5123 7.71015 19.8902Z" fill="black"></path></mask><g mask="url(#mask2_4924_127)"><path d="M22.683 1.07812C23.0003 1.16237 23.3226 1.23094 23.6321 1.33477C24.0435 1.47288 24.2258 1.78047 24.1209 2.10471C24.0054 2.46029 23.686 2.58567 23.2492 2.44657C21.7023 1.95385 20.1939 2.63954 19.6541 4.09419C19.278 5.10803 19.4601 6.04057 20.1185 6.88692C20.1782 6.9643 20.2517 7.0309 20.3105 7.10829C20.5201 7.38551 20.4957 7.72247 20.2546 7.93309C20.0294 8.129 19.6933 8.12508 19.4572 7.89781C18.9537 7.41196 18.6216 6.8203 18.4317 6.14735C18.3993 6.03176 18.368 5.91518 18.3307 5.78001H17.886C12.4505 5.78001 7.0149 5.78001 1.57933 5.78001C1.45688 5.78001 1.33345 5.78784 1.21297 5.77315C0.896568 5.73299 0.667353 5.47438 0.688902 5.1717C0.712412 4.84845 0.899508 4.65841 1.21786 4.61238C1.33737 4.59474 1.46178 4.60552 1.58422 4.60552C7.00804 4.60552 12.4309 4.60552 17.8546 4.60552H18.2926C18.3543 4.35278 18.3934 4.12358 18.4669 3.90709C18.9842 2.38877 20.0294 1.46702 21.6015 1.14865C21.6701 1.13494 21.7357 1.10261 21.8023 1.0791C22.0952 1.0791 22.39 1.07812 22.683 1.07812Z" stroke="white"></path></g><mask id="mask3_4924_127" style="mask-type:luminance" maskUnits="userSpaceOnUse" x="-1" y="-1" width="41" height="42"><path d="M39.671 -0.367188H-0.773438V40.0773H39.671V-0.367188Z" fill="white"></path><path d="M37.4163 38.6926C37.1293 38.3036 36.8648 37.8953 36.5494 37.5319C35.9038 36.7864 35.8676 36.0145 36.1222 35.0653C36.6414 33.1307 37.1175 31.1578 37.0283 29.1379C36.9519 27.4062 36.7032 25.6821 36.5053 23.9571C36.3406 22.524 36.1429 21.0938 35.9499 19.6637C35.9126 19.3865 35.8422 19.1112 35.7627 18.8428C35.5042 17.974 34.8841 17.5645 33.973 17.4753C34.03 18.0229 34.1103 18.5509 34.1338 19.0818C34.1602 19.6794 34.1523 20.2799 34.1298 20.8783C34.1132 21.3152 33.8634 21.5414 33.4951 21.515C33.1405 21.4896 32.9309 21.2133 32.9651 20.7765C33.0974 19.1044 32.8065 17.4862 32.3587 15.8875C32.3059 15.6994 32.2373 15.5162 32.1639 15.335C31.8044 14.4534 30.9453 14.0175 29.9579 14.2399C30.0352 15.095 30.1157 15.9561 30.19 16.8171C30.2919 17.9877 30.3939 19.1583 30.4869 20.3288C30.5162 20.706 30.2958 20.9713 29.9628 20.9988C29.618 21.0282 29.3643 20.8275 29.328 20.4405C29.2036 19.1122 29.0979 17.7829 28.9813 16.4537C28.9058 15.5877 28.8353 14.7218 28.7423 13.8578C28.6913 13.3818 28.5493 12.9165 28.0478 12.7352C27.458 12.5217 26.8635 12.5629 26.3325 12.9312C26.0651 13.1163 26.0318 13.4131 26.0475 13.7217C26.1356 15.3968 26.2219 17.0707 26.3032 18.7459C26.3452 19.602 26.3805 20.4581 26.4099 21.3142C26.4255 21.7717 26.2022 22.0509 25.8398 22.0587C25.4793 22.0665 25.2619 21.7961 25.2373 21.3358C25.0171 17.2295 24.8104 13.1222 24.5605 9.01684C24.4851 7.77378 24.3078 6.53464 24.1364 5.2994C24.0188 4.44915 23.5652 4.35708 22.8247 4.80278C22.7298 4.86057 22.668 5.0457 22.6641 5.17403C22.6239 6.51995 22.5681 7.86585 22.5739 9.21177C22.5858 12.1377 22.67 15.0637 22.6493 17.9887C22.6347 20.1299 22.5005 22.2693 22.4182 24.4097C22.4084 24.6545 22.4026 24.8993 22.3781 25.1433C22.3438 25.4901 22.09 25.7105 21.7659 25.6929C21.4611 25.6762 21.2222 25.444 21.2212 25.112C21.2212 24.7329 21.2751 24.3538 21.2712 23.9756C21.2692 23.8385 21.1888 23.6867 21.1075 23.5673C20.7314 23.0158 20.2721 22.5092 19.9722 21.9206C19.1572 20.3219 17.832 19.4178 16.1589 18.9633C15.8817 18.8879 15.5447 18.928 15.2606 19.0073C14.7855 19.1396 14.6357 19.5217 14.8795 19.9507C15.0901 20.32 15.3253 20.6884 15.6123 20.9998C17.0777 22.5955 18.0366 24.4586 18.7615 26.4931C19.1543 27.5971 19.8077 28.612 20.3788 29.6474C20.9215 30.6318 21.5905 31.5536 22.0597 32.5693C22.6122 33.7645 23.487 34.5921 24.5664 35.2583C24.8886 35.4571 25.2197 35.6394 25.5479 35.8274C25.923 36.0419 26.0494 36.3593 25.881 36.6727C25.7154 36.9823 25.3588 37.0773 24.9964 36.8559C24.2892 36.423 23.579 35.9891 22.905 35.5071C22.2008 35.0035 21.6846 34.3346 21.2712 33.5597C20.6207 32.3421 19.9302 31.1441 19.2023 29.9725C18.4627 28.7824 17.8457 27.5412 17.4048 26.2121C16.9131 24.7299 16.155 23.4056 15.1284 22.2271C14.712 21.7492 14.3065 21.2495 13.9754 20.7109C13.1144 19.308 13.8745 17.8496 15.5191 17.7506C15.9718 17.7232 16.4606 17.7751 16.8867 17.923C18.7557 18.5734 20.2553 19.6803 21.0909 21.5474C21.136 21.6473 21.1938 21.7414 21.2447 21.8393C21.2614 21.8716 21.2751 21.9059 21.2898 21.9392C21.3181 21.9294 21.3466 21.9206 21.3759 21.9108C21.3916 21.6267 21.4201 21.3427 21.4201 21.0596C21.421 18.6488 21.4152 16.2382 21.4161 13.8275C21.4181 11.2933 21.4181 8.75921 21.4367 6.22509C21.4406 5.66381 21.5141 5.10349 21.567 4.54418C21.5768 4.44034 21.6131 4.31496 21.6826 4.24344C22.2713 3.63613 22.9736 3.24331 23.8395 3.39025C24.6731 3.5313 25.1345 4.11317 25.2461 4.92719C25.4401 6.33186 25.6018 7.74145 25.7517 9.15104C25.8418 10.0003 25.8829 10.8545 25.9476 11.7283C26.3051 11.6421 26.6273 11.5402 26.9575 11.4893C28.1379 11.3071 29.2379 11.7322 29.715 12.8606C29.7492 12.9409 29.9098 12.9968 30.0186 13.0095C30.4408 13.0605 30.8767 13.0428 31.2881 13.1349C32.16 13.3298 32.8182 13.8314 33.164 14.6767C33.3707 15.1842 33.5381 15.7092 33.7302 16.2441C34.0349 16.2881 34.3766 16.3087 34.7029 16.391C36.0929 16.7407 36.7972 17.729 37.0361 19.0671C37.2311 20.1613 37.3359 21.2712 37.4799 22.375C37.6935 24.0119 37.907 25.6497 38.1196 27.2866C38.1588 27.5863 38.1881 27.888 38.2225 28.1888V30.2458C38.2077 30.2792 38.1823 30.3115 38.1793 30.3468C37.9903 32.2569 37.5896 34.1279 37.1351 35.9891C37.1058 36.1105 37.1566 36.28 37.2252 36.3926C37.5475 36.9216 37.8884 37.4387 38.2225 37.9599V38.6945H37.4163V38.6926Z" fill="black"></path><path d="M13.5081 38.6887C13.0447 38.5867 12.5638 38.5359 12.123 38.3753C10.7535 37.8746 9.87978 36.7835 9.51147 35.1622H9.0932C6.57573 35.1622 4.05825 35.1622 1.54079 35.1622C1.43108 35.1622 1.31941 35.1692 1.21068 35.1563C0.892325 35.1172 0.662129 34.8635 0.68074 34.5598C0.700331 34.2356 0.886448 34.0455 1.20383 33.9945C1.31158 33.9769 1.42325 33.9878 1.53296 33.9878C4.05043 33.9878 6.56789 33.9878 9.08535 33.9878H9.51048C9.73579 32.8074 10.3088 31.8601 11.3021 31.192C12.0348 30.6993 12.8459 30.4604 13.7265 30.5053C15.7356 30.6073 17.1422 31.8494 17.6536 33.9878C18.2755 33.9878 18.9083 33.9867 19.5412 33.9888C19.6626 33.9888 19.7909 33.9818 19.9036 34.0191C20.1926 34.1131 20.3415 34.3258 20.32 34.6333C20.2983 34.936 20.0574 35.1524 19.7185 35.1593C19.1689 35.17 18.6184 35.1632 18.0688 35.1632C17.9357 35.1632 17.8035 35.1632 17.7408 35.1632C17.4831 35.7422 17.3078 36.3113 16.9982 36.7942C16.2998 37.8854 15.2733 38.4966 13.9763 38.6299C13.8685 38.6406 13.7618 38.6691 13.655 38.6887H13.5081ZM13.5815 31.6368C11.9574 31.6407 10.6487 32.9553 10.6487 34.5833C10.6487 36.2006 11.978 37.521 13.5992 37.5112C15.2046 37.5014 16.5094 36.1908 16.5133 34.5833C16.5163 32.9573 15.1979 31.6329 13.5815 31.6368Z" fill="black"></path><path d="M22.6752 1.07812C22.9925 1.16237 23.3148 1.23094 23.6243 1.33477C24.0357 1.47288 24.218 1.78047 24.1131 2.10471C23.9976 2.46029 23.6782 2.58567 23.2414 2.44657C21.6945 1.95385 20.1861 2.63954 19.6463 4.09419C19.2702 5.10803 19.4523 6.04057 20.1107 6.88692C20.1704 6.9643 20.2439 7.0309 20.3027 7.10829C20.5123 7.38551 20.4878 7.72247 20.2468 7.93309C20.0216 8.129 19.6855 8.12508 19.4494 7.89781C18.9459 7.41196 18.6138 6.8203 18.4239 6.14735C18.3915 6.03176 18.3602 5.91518 18.3229 5.78001H17.8782C12.4427 5.78001 7.00709 5.78001 1.57151 5.78001C1.44907 5.78001 1.32564 5.78784 1.20515 5.77315C0.888756 5.73299 0.65954 5.47438 0.68109 5.1717C0.704599 4.84845 0.891695 4.65841 1.21005 4.61238C1.32956 4.59474 1.45396 4.60552 1.57641 4.60552C7.00023 4.60552 12.4231 4.60552 17.8468 4.60552H18.2848C18.3465 4.35278 18.3856 4.12358 18.4591 3.90709C18.9764 2.38877 20.0216 1.46702 21.5937 1.14865C21.6623 1.13494 21.7279 1.10261 21.7945 1.0791C22.0874 1.0791 22.3822 1.07812 22.6752 1.07812Z" fill="black"></path><path d="M38.2253 5.40095C38.0176 5.69775 37.7336 5.77611 37.3751 5.77514C34.0279 5.76437 30.6817 5.76828 27.3346 5.76828C27.2248 5.76828 27.1122 5.77906 27.0054 5.75849C26.691 5.69873 26.499 5.50479 26.5 5.17957C26.5 4.85435 26.691 4.66039 27.0064 4.60162C27.1132 4.58203 27.2258 4.59281 27.3355 4.59281C30.6827 4.59281 34.0289 4.59672 37.3759 4.58595C37.7336 4.58498 38.0186 4.66138 38.2253 4.96014V5.40095Z" fill="black"></path><path d="M8.86897 19.2916C9.71236 19.2916 10.5646 19.2916 11.4178 19.2916C11.5402 19.2916 11.6627 19.2867 11.7841 19.2936C12.1573 19.3123 12.4032 19.5502 12.4003 19.8832C12.3983 20.2153 12.1505 20.4603 11.7753 20.4642C10.9329 20.473 10.0895 20.4671 9.2461 20.4681C9.11386 20.4681 8.9826 20.4681 8.85819 20.4681C8.28319 23.2403 6.0018 24.1698 4.34243 23.97C2.24225 23.7162 0.686708 22.0079 0.672015 19.9666C0.655362 17.8135 2.12568 16.114 4.28072 15.7946C6.38285 15.483 8.15095 16.8202 8.86897 19.2916ZM7.71015 19.8902C7.71406 18.2788 6.41321 16.9535 4.8175 16.9416C3.17381 16.9289 1.84748 18.2445 1.84651 19.8871C1.84553 21.4908 3.15912 22.8121 4.75874 22.8171C6.3848 22.822 7.70525 21.5123 7.71015 19.8902Z" fill="black"></path></mask><g mask="url(#mask3_4924_127)"><path d="M38.2253 5.40095C38.0176 5.69775 37.7336 5.77611 37.3751 5.77514C34.0279 5.76437 30.6817 5.76828 27.3346 5.76828C27.2248 5.76828 27.1122 5.77906 27.0054 5.75849C26.691 5.69873 26.499 5.50479 26.5 5.17957C26.5 4.85435 26.691 4.66039 27.0064 4.60162C27.1132 4.58203 27.2258 4.59281 27.3355 4.59281C30.6827 4.59281 34.0289 4.59672 37.3759 4.58595C37.7336 4.58498 38.0186 4.66138 38.2253 4.96014V5.40095Z" stroke="white"></path></g><mask id="mask4_4924_127" style="mask-type:luminance" maskUnits="userSpaceOnUse" x="-3" y="-3" width="45" height="46"><path d="M-0.773438 -1.36719H-1.77344V-0.367188V40.0773V41.0773H-0.773438H39.671H40.671V40.0773V-0.367188V-1.36719H39.671H-0.773438Z" fill="white" stroke="white" stroke-width="2"></path><path d="M26.8657 10.492C28.2152 10.3028 29.6481 10.7385 30.4195 12.0409C30.4591 12.0433 30.5005 12.0457 30.5445 12.0483C30.5986 12.0514 30.6568 12.0548 30.7205 12.0588C30.9431 12.0728 31.2201 12.095 31.5063 12.159C32.6635 12.4177 33.6073 13.1191 34.0896 14.2981L34.0901 14.2995C34.2264 14.6339 34.3519 14.9903 34.4698 15.3301C34.6288 15.3536 34.7958 15.3831 34.9469 15.4212L26.8657 10.492ZM26.8657 10.492C26.8331 10.0107 26.7968 9.52327 26.7461 9.04551L26.7461 9.04527C26.5957 7.63099 26.4328 6.21001 26.2368 4.79084C26.2368 4.79099 26.2368 4.79114 26.2369 4.79129L25.2462 4.92718L26.2367 4.79038M26.8657 10.492L26.2367 4.79038M26.2367 4.79038C26.1603 4.2344 25.9546 3.68848 25.5637 3.24505C25.1649 2.79273 24.6277 2.5095 24.0068 2.40435L26.2367 4.79038ZM20.4194 18.8707C20.419 18.3954 20.4186 17.92 20.4181 17.4445V17.4442C20.4169 16.2391 20.4156 15.0332 20.4161 13.8271V13.8267C20.4163 13.5785 20.4164 13.3302 20.4166 13.0819C20.4183 10.7966 20.4199 8.50745 20.4367 6.21814L20.4194 18.8707ZM20.4194 18.8707C19.5182 18.0032 18.4183 17.3972 17.2154 16.9785L17.2146 16.9783C16.6436 16.78 16.0199 16.7185 15.4591 16.7524L20.4194 18.8707ZM25.881 36.6727C25.7154 36.9823 25.3588 37.0773 24.9964 36.8559L24.9711 36.8404C24.2722 36.4126 23.5709 35.9833 22.905 35.5071C22.2008 35.0035 21.6846 34.3346 21.2712 33.5597L25.881 36.6727ZM25.881 36.6727L26.7628 37.1443C26.7625 37.1449 26.7622 37.1455 26.7619 37.146C26.5527 37.536 26.1915 37.8361 25.7312 37.9392C25.278 38.0408 24.8351 37.9292 24.475 37.7092L24.4743 37.7088L24.4361 37.6854C23.7462 37.2631 23.0187 36.8178 22.3233 36.3205C21.4607 35.7037 20.8529 34.9 20.3892 34.0309C19.7489 32.8323 19.0692 31.6532 18.3529 30.5003M25.881 36.6727L18.3529 30.5003M18.3529 30.5003C17.5805 29.2573 16.926 27.9448 16.4557 26.5269C16.0061 25.1716 15.3146 23.9634 14.3744 22.884C14.3744 22.884 14.3744 22.884 14.3743 22.8839L15.1284 22.2271L18.3529 30.5003ZM31.0713 15.4395C31.1395 15.516 31.195 15.6076 31.2375 15.7115C31.3049 15.8782 31.3577 16.0217 31.3959 16.1574C31.8281 17.7007 32.0875 19.1907 31.9682 20.6976L31.9682 20.6983C31.938 21.0828 32.006 21.5183 32.2761 21.8889C32.5604 22.2791 32.9853 22.481 33.4235 22.5124C33.4235 22.5124 33.4235 22.5125 33.4236 22.5125L33.4951 21.515C33.8634 21.5414 34.1132 21.3152 34.1298 20.8783C34.1523 20.2799 34.1602 19.6794 34.1338 19.0818C34.1252 18.8884 34.1091 18.6953 34.0893 18.5015C34.297 18.5426 34.4311 18.6066 34.5191 18.6715C34.6116 18.7398 34.7064 18.8473 34.7799 19.0532C34.7799 19.0532 34.7799 19.0532 34.7799 19.0533C34.7882 19.0766 34.7962 19.1011 34.804 19.1271C34.8774 19.3752 34.9316 19.594 34.9588 19.7969L34.9589 19.7974C34.983 19.9762 35.0072 20.1547 35.0313 20.333C35.0576 20.5273 35.0839 20.7214 35.11 20.9152C35.11 20.9153 35.1101 20.9154 35.1101 20.9156C35.1144 20.948 35.1188 20.9803 35.1232 21.0127C35.1259 20.9803 35.1278 20.9482 35.129 20.9163L35.1291 20.9159C35.1432 20.5398 35.152 20.1574 35.1502 19.7716C35.1502 19.7714 35.1502 19.7713 35.1502 19.7712C35.149 19.5278 35.1437 19.2831 35.1328 19.0377L35.1328 19.0375L31.0713 15.4395ZM31.0713 15.4395C31.1104 15.8692 31.1491 16.3005 31.1863 16.731L31.1863 16.7304L31.0713 15.4395ZM27.4093 21.2798L27.4094 21.2802C27.4226 21.6672 27.3393 22.1035 27.057 22.4677C26.7565 22.8554 26.316 23.0487 25.8613 23.0585M27.4093 21.2798L24.2388 21.3893C24.258 21.7495 24.3576 22.1655 24.6413 22.5093C24.9526 22.8864 25.3978 23.0685 25.8613 23.0585M27.4093 21.2798C27.3797 20.4194 27.3443 19.5586 27.302 18.6974L27.4093 21.2798ZM25.8613 23.0585L25.8398 22.0587L25.8614 23.0585C25.8614 23.0585 25.8614 23.0585 25.8613 23.0585ZM23.5742 9.27327C23.759 12.3258 23.9203 15.3784 24.0819 18.4352C24.1339 19.4193 24.1859 20.4039 24.2388 21.389L23.5742 9.27327ZM23.5742 9.27327C23.5793 10.423 23.5957 11.5889 23.6122 12.7603C23.6368 14.5046 23.6615 16.2612 23.6493 17.9955L23.5742 9.27327ZM23.4175 24.4481L23.4174 24.4498C23.4159 24.4869 23.4145 24.526 23.413 24.5665C23.4056 24.7682 23.3967 25.0079 23.373 25.2435C23.2886 26.0889 22.6019 26.7399 21.7116 26.6914L21.711 26.6914C20.891 26.6463 20.2239 25.9905 20.2212 25.115L20.2212 25.112C20.2212 24.8937 20.2359 24.6797 20.248 24.5037L20.25 24.4751C20.2594 24.3377 20.2669 24.2214 20.2699 24.114C20.1574 23.95 20.044 23.8 19.9166 23.6315C19.8513 23.5451 19.7822 23.4537 19.7076 23.353C19.4996 23.0721 19.2698 22.7448 19.0813 22.3748L23.4175 24.4481ZM23.4175 24.4481C23.4418 23.8166 23.471 23.1782 23.5004 22.5356M23.4175 24.4481L23.5004 22.5356M16.0749 19.9791C17.4402 20.3868 18.4457 21.1281 19.0812 22.3745L16.0749 19.9791ZM16.0749 19.9791C16.1635 20.1055 16.2536 20.2201 16.3476 20.3221L16.3488 20.3234C17.9329 22.0483 18.9501 24.0429 19.7035 26.1575L19.7036 26.1579C19.9727 26.9142 20.3677 27.6046 20.8104 28.3785C20.9543 28.6299 21.1032 28.8902 21.2544 29.1644L21.2545 29.1646C21.4534 29.5253 21.6674 29.8724 21.8959 30.243C21.9627 30.3514 22.0308 30.4617 22.1 30.575C22.3972 31.0612 22.7072 31.5865 22.9674 32.1497L16.0749 19.9791ZM20.5714 4.45008L20.5714 4.45001C20.5891 4.26294 20.6596 3.86187 20.9646 3.54739L20.5714 4.45008ZM20.5714 4.45008C20.5611 4.55954 20.5492 4.67487 20.5368 4.79462M20.5714 4.45008L20.5368 4.79462M23.5004 22.5356C23.5692 21.034 23.639 19.5095 23.6493 17.9958L23.5004 22.5356ZM20.5368 4.79462C20.4915 5.2333 20.4401 5.73132 20.4367 6.21774L20.5368 4.79462ZM35.5118 24.0713C35.5585 24.4785 35.6073 24.8802 35.6556 25.2781C35.8165 26.6036 35.9721 27.8859 36.0293 29.182C36.1109 31.0313 35.6761 32.8693 35.1564 34.8062L35.1564 34.8062C35.0105 35.3501 34.9239 35.9269 35.0083 36.5166C35.0956 37.1265 35.3555 37.6808 35.7934 38.1865L35.7942 38.1874C35.9812 38.4029 36.1314 38.6149 36.3096 38.8664C36.344 38.9149 36.3794 38.9649 36.4163 39.0167V39.6945H37.4163H38.2225H39.2225V38.6945V37.9599V37.6669L39.0643 37.4202C38.9722 37.2765 38.8812 37.1356 38.7914 36.9965C38.575 36.6614 38.3649 36.3361 38.1604 36.0047C38.5849 34.2487 38.9648 32.4494 39.1585 30.6017L39.2225 30.4568V30.2458V28.1888V28.1318L39.216 28.0752C39.2057 27.9851 39.1953 27.8891 39.1845 27.7898C39.1622 27.5846 39.1384 27.3657 39.1113 27.1578C38.8986 25.5206 38.6851 23.8826 38.4715 22.2456C38.4309 21.9345 38.3924 21.6129 38.3533 21.2854C38.2596 20.5019 38.1618 19.6841 38.0206 18.8917L38.0206 18.8914C37.8794 18.1006 37.5886 17.3446 37.0711 16.7202C36.5451 16.0857 35.8312 15.6438 34.9472 15.4213L35.5118 24.0713ZM31.1913 16.7878L31.1863 16.731L27.302 18.6968C27.2206 17.0205 27.1343 15.3458 27.0462 13.6708C27.2333 13.5867 27.4375 13.5821 27.6868 13.6682C27.6937 13.6846 27.7029 13.7107 27.7126 13.7493C27.7264 13.8049 27.7384 13.8752 27.748 13.9643L27.748 13.9649C27.8229 14.6599 27.8828 15.355 27.9438 16.0626C27.9574 16.2213 27.9712 16.3805 27.9851 16.5406L27.9852 16.541C28.0274 17.0222 28.0684 17.507 28.1096 17.9936C28.1812 18.8388 28.2533 19.6892 28.3324 20.5337L28.3324 20.5338C28.3693 20.9284 28.5313 21.3381 28.8802 21.6362C29.2293 21.9344 29.6572 22.0279 30.045 21.9954C30.4666 21.9606 30.8662 21.7656 31.1431 21.4177C31.4166 21.0741 31.5151 20.6528 31.4839 20.2513L31.4837 20.2496C31.3919 19.0939 31.2914 17.9387 31.1913 16.7878ZM25.7749 34.806C25.5356 34.6702 25.3141 34.5446 25.0916 34.4073L26.0451 34.9598C25.952 34.9065 25.8623 34.8555 25.7749 34.806ZM25.0913 34.4072C24.1282 33.8127 23.4156 33.1191 22.9675 32.15L25.0913 34.4072ZM24.0064 2.40427C22.6884 2.18081 21.675 2.8147 20.9649 3.54701L24.0064 2.40427Z" fill="black" stroke="white" stroke-width="2"></path><path d="M13.3993 39.6887L13.2931 39.6653C13.1598 39.636 13.0437 39.6149 12.9112 39.5907C12.8231 39.5747 12.7279 39.5574 12.6155 39.5354C12.3657 39.4867 12.0749 39.422 11.7806 39.3148L11.7796 39.3145C10.284 38.7677 9.28455 37.6579 8.75934 36.1622H8.75393H8.73918H8.72443H8.70968H8.69493H8.68018H8.66543H8.65067H8.63592H8.62117H8.60642H8.59167H8.57692H8.56217H8.54742H8.53267H8.51792H8.50317H8.48842H8.47367H8.45891H8.44416H8.42941H8.41466H8.39991H8.38516H8.37041H8.35566H8.34091H8.32616H8.31141H8.29666H8.28191H8.26715H8.2524H8.23765H8.2229H8.20815H8.1934H8.17865H8.1639H8.14915H8.1344H8.11965H8.1049H8.09015H8.07539H8.06064H8.04589H8.03114H8.01639H8.00164H7.98689H7.97214H7.95739H7.94264H7.92789H7.91314H7.89838H7.88363H7.86888H7.85413H7.83938H7.82463H7.80988H7.79513H7.78038H7.76563H7.75088H7.73613H7.72137H7.70662H7.69187H7.67712H7.66237H7.64762H7.63287H7.61812H7.60337H7.58862H7.57387H7.55912H7.54437H7.52961H7.51486H7.50011H7.48536H7.47061H7.45586H7.44111H7.42636H7.41161H7.39686H7.38211H7.36736H7.35261H7.33785H7.3231H7.30835H7.2936H7.27885H7.2641H7.24935H7.2346H7.21985H7.2051H7.19035H7.1756H7.16084H7.14609H7.13134H7.11659H7.10184H7.08709H7.07234H7.05759H7.04284H7.02809H7.01334H6.99859H6.98384H6.96908H6.95433H6.93958H6.92483H6.91008H6.89533H6.88058H6.86583H6.85108H6.83633H6.82158H6.80683H6.79207H6.77732H6.76257H6.74782H6.73307H6.71832H6.70357H6.68882H6.67407H6.65932H6.64457H6.62982H6.61507H6.60031H6.58556H6.57081H6.55606H6.54131H6.52656H6.51181H6.49706H6.48231H6.46756H6.45281H6.43806H6.4233H6.40855H6.3938H6.37905H6.3643H6.34955H6.3348H6.32005H6.3053H6.29055H6.2758H6.26105H6.24629H6.23154H6.21679H6.20204H6.18729H6.17254H6.15779H6.14304H6.12829H6.11354H6.09879H6.08404H6.06929H6.05453H6.03978H6.02503H6.01028H5.99553H5.98078H5.96603H5.95128H5.93653H5.92178H5.90703H5.89228H5.87752H5.86277H5.84802H5.83327H5.81852H5.80377H5.78902H5.77427H5.75952H5.74477H5.73002H5.71527H5.70051H5.68576H5.67101H5.65626H5.64151H5.62676H5.61201H5.59726H5.58251H5.56776H5.55301H5.53826H5.52351H5.50875H5.494H5.47925H5.4645H5.44975H5.435H5.42025H5.4055H5.39075H5.376H5.36125H5.3465H5.33174H5.31699H5.30224H5.28749H5.27274H5.25799H5.24324H5.22849H5.21374H5.19899H5.18424H5.16949H5.15474H5.13998H5.12523H5.11048H5.09573H5.08098H5.06623H5.05148H5.03673H5.02198H5.00723H4.99248H4.97773H4.96297H4.94822H4.93347H4.91872H4.90397H4.88922H4.87447H4.85972H4.84497H4.83022H4.81547H4.80072H4.78596H4.77121H4.75646H4.74171H4.72696H4.71221H4.69746H4.68271H4.66796H4.65321H4.63846H4.62371H4.60895H4.5942H4.57945H4.5647H4.54995H4.5352H4.52045H4.5057H4.49095H4.4762H4.46145H4.4467H4.43195H4.41719H4.40244H4.38769H4.37294H4.35819H4.34344H4.32869H4.31394H4.29919H4.28444H4.26969H4.25494H4.24018H4.22543H4.21068H4.19593H4.18118H4.16643H4.15168H4.13693H4.12218H4.10743H4.09268H4.07793H4.06317H4.04842H4.03367H4.01892H4.00417H3.98942H3.97467H3.95992H3.94517H3.93042H3.91567H3.90092H3.88617H3.87141H3.85666H3.84191H3.82716H3.81241H3.79766H3.78291H3.76816H3.75341H3.73866H3.72391H3.70916H3.6944H3.67965H3.6649H3.65015H3.6354H3.62065H3.6059H3.59115H3.5764H3.56165H3.5469H3.53215H3.5174H3.50264H3.48789H3.47314H3.45839H3.44364H3.42889H3.41414H3.39939H3.38464H3.36989H3.35514H3.34039H3.32563H3.31088H3.29613H3.28138H3.26663H3.25188H3.23713H3.22238H3.20763H3.19288H3.17813H3.16338H3.14863H3.13387H3.11912H3.10437H3.08962H3.07487H3.06012H3.04537H3.03062H3.01587H3.00112H2.98637H2.97162H2.95687H2.94211H2.92736H2.91261H2.89786H2.88311H2.86836H2.85361H2.83886H2.82411H2.80936H2.79461H2.77986H2.7651H2.75035H2.7356H2.72085H2.7061H2.69135H2.6766H2.66185H2.6471H2.63235H2.6176H2.60285H2.5881H2.57334H2.55859H2.54384H2.52909H2.51434H2.49959H2.48484H2.47009H2.45534H2.44059H2.42584H2.41109H2.39634H2.38158H2.36683H2.35208H2.33733H2.32258H2.30783H2.29308H2.27833H2.26358H2.24883H2.23408H2.21933H2.20457H2.18982H2.17507H2.16032H2.14557H2.13082H2.11607H2.10132H2.08657H2.07182H2.05707H2.04232H2.02757H2.01281H1.99806H1.98331H1.96856H1.95381H1.93906H1.92431H1.90956H1.89481H1.88006H1.86531H1.85056H1.83581H1.82105H1.8063H1.79155H1.7768H1.76205H1.7473H1.73255H1.7178H1.70305H1.6883H1.67355H1.6588H1.64405H1.62929H1.61454H1.59979H1.58504H1.57029H1.55554H1.54079C1.53758 36.1622 1.53092 36.1624 1.52133 36.1626C1.45614 36.1641 1.25602 36.1686 1.09327 36.1494L1.08864 36.1488L1.08864 36.1488C0.312377 36.0534 -0.371845 35.3947 -0.317438 34.4994L13.3993 39.6887ZM13.3993 39.6887H13.5081M13.3993 39.6887H13.5081M13.5081 39.6887H13.655H13.7462L13.8359 39.6722C13.8749 39.665 13.9112 39.6576 13.9402 39.6515C13.9521 39.649 13.9621 39.6469 13.9711 39.645C13.9871 39.6416 14 39.6389 14.015 39.6358C14.0356 39.6316 14.0496 39.629 14.0603 39.6272L14.0715 39.6255C14.074 39.6251 14.0751 39.625 14.075 39.625L14.0786 39.6247M13.5081 39.6887L14.0786 39.6247M10.744 30.3623L10.7441 30.3622C11.6465 29.7554 12.6695 29.4502 13.7772 29.5066L10.744 30.3623ZM10.744 30.3623C9.75092 31.0302 9.09908 31.9291 8.74073 32.9878H8.73134H8.71659H8.70183H8.68708H8.67233H8.65758H8.64283H8.62808H8.61333H8.59858H8.58383H8.56908H8.55433H8.53958H8.52483H8.51007H8.49532H8.48057H8.46582H8.45107H8.43632H8.42157H8.40682H8.39207H8.37732H8.36257H8.34782H8.33307H8.31831H8.30356H8.28881H8.27406H8.25931H8.24456H8.22981H8.21506H8.20031H8.18556H8.17081H8.15606H8.1413H8.12655H8.1118H8.09705H8.0823H8.06755H8.0528H8.03805H8.0233H8.00855H7.9938H7.97905H7.9643H7.94954H7.93479H7.92004H7.90529H7.89054H7.87579H7.86104H7.84629H7.83154H7.81679H7.80204H7.78729H7.77254H7.75778H7.74303H7.72828H7.71353H7.69878H7.68403H7.66928H7.65453H7.63978H7.62503H7.61028H7.59553H7.58078H7.56603H7.55127H7.53652H7.52177H7.50702H7.49227H7.47752H7.46277H7.44802H7.43327H7.41852H7.40377H7.38902H7.37427H7.35951H7.34476H7.33001H7.31526H7.30051H7.28576H7.27101H7.25626H7.24151H7.22676H7.21201H7.19726H7.18251H7.16775H7.153H7.13825H7.1235H7.10875H7.094H7.07925H7.0645H7.04975H7.035H7.02025H7.0055H6.99075H6.97599H6.96124H6.94649H6.93174H6.91699H6.90224H6.88749H6.87274H6.85799H6.84324H6.82849H6.81374H6.79899H6.78423H6.76948H6.75473H6.73998H6.72523H6.71048H6.69573H6.68098H6.66623H6.65148H6.63673H6.62198H6.60722H6.59247H6.57772H6.56297H6.54822H6.53347H6.51872H6.50397H6.48922H6.47447H6.45972H6.44497H6.43022H6.41547H6.40071H6.38596H6.37121H6.35646H6.34171H6.32696H6.31221H6.29746H6.28271H6.26796H6.25321H6.23846H6.22371H6.20895H6.1942H6.17945H6.1647H6.14995H6.1352H6.12045H6.1057H6.09095H6.0762H6.06145H6.0467H6.03195H6.01719H6.00244H5.98769H5.97294H5.95819H5.94344H5.92869H5.91394H5.89919H5.88444H5.86969H5.85494H5.84019H5.82543H5.81068H5.79593H5.78118H5.76643H5.75168H5.73693H5.72218H5.70743H5.69268H5.67793H5.66318H5.64843H5.63367H5.61892H5.60417H5.58942H5.57467H5.55992H5.54517H5.53042H5.51567H5.50092H5.48617H5.47142H5.45667H5.44191H5.42716H5.41241H5.39766H5.38291H5.36816H5.35341H5.33866H5.32391H5.30916H5.29441H5.27966H5.26491H5.25015H5.2354H5.22065H5.2059H5.19115H5.1764H5.16165H5.1469H5.13215H5.1174H5.10265H5.0879H5.07315H5.05839H5.04364H5.02889H5.01414H4.99939H4.98464H4.96989H4.95514H4.94039H4.92564H4.91089H4.89614H4.88139H4.86663H4.85188H4.83713H4.82238H4.80763H4.79288H4.77813H4.76338H4.74863H4.73388H4.71913H4.70438H4.68963H4.67487H4.66012H4.64537H4.63062H4.61587H4.60112H4.58637H4.57162H4.55687H4.54212H4.52737H4.51262H4.49787H4.48311H4.46836H4.45361H4.43886H4.42411H4.40936H4.39461H4.37986H4.36511H4.35036H4.33561H4.32086H4.30611H4.29135H4.2766H4.26185H4.2471H4.23235H4.2176H4.20285H4.1881H4.17335H4.1586H4.14385H4.1291H4.11435H4.09959H4.08484H4.07009H4.05534H4.04059H4.02584H4.01109H3.99634H3.98159H3.96684H3.95209H3.93734H3.92259H3.90783H3.89308H3.87833H3.86358H3.84883H3.83408H3.81933H3.80458H3.78983H3.77508H3.76033H3.74558H3.73083H3.71607H3.70132H3.68657H3.67182H3.65707H3.64232H3.62757H3.61282H3.59807H3.58332H3.56857H3.55382H3.53907H3.52431H3.50956H3.49481H3.48006H3.46531H3.45056H3.43581H3.42106H3.40631H3.39156H3.37681H3.36206H3.34731H3.33255H3.3178H3.30305H3.2883H3.27355H3.2588H3.24405H3.2293H3.21455H3.1998H3.18505H3.1703H3.15555H3.14079H3.12604H3.11129H3.09654H3.08179H3.06704H3.05229H3.03754H3.02279H3.00804H2.99329H2.97854H2.96379H2.94903H2.93428H2.91953H2.90478H2.89003H2.87528H2.86053H2.84578H2.83103H2.81628H2.80153H2.78678H2.77203H2.75727H2.74252H2.72777H2.71302H2.69827H2.68352H2.66877H2.65402H2.63927H2.62452H2.60977H2.59502H2.58027H2.56551H2.55076H2.53601H2.52126H2.50651H2.49176H2.47701H2.46226H2.44751H2.43276H2.41801H2.40326H2.38851H2.37375H2.359H2.34425H2.3295H2.31475H2.3H2.28525H2.2705H2.25575H2.241H2.22625H2.2115H2.19675H2.18199H2.16724H2.15249H2.13774H2.12299H2.10824H2.09349H2.07874H2.06399H2.04924H2.03449H2.01974H2.00499H1.99023H1.97548H1.96073H1.94598H1.93123H1.91648H1.90173H1.88698H1.87223H1.85748H1.84273H1.82798H1.81323H1.79847H1.78372H1.76897H1.75422H1.73947H1.72472H1.70997H1.69522H1.68047H1.66572H1.65097H1.63622H1.62147H1.60671H1.59196H1.57721H1.56246H1.54771H1.53296C1.49029 32.9878 1.48582 32.9874 1.47932 32.9869C1.4715 32.9862 1.46073 32.9854 1.37683 32.9846C1.30006 32.9839 1.18064 32.9853 1.0452 33.0072M10.744 30.3623L1.0452 33.0072M21.3176 34.7031L21.3174 34.7047C21.2542 35.5889 20.5255 36.143 19.739 36.1591L19.738 36.1592C19.3298 36.1671 18.9157 36.1657 18.5155 36.1643C18.4797 36.1642 18.444 36.164 18.4084 36.1639C18.3787 36.2377 18.3471 36.3154 18.3118 36.3998C18.1902 36.6914 18.0425 37.018 17.8403 37.3335L21.3176 34.7031ZM21.3176 34.7031C21.3409 34.3692 21.2747 34.0048 21.0537 33.6817C20.8344 33.361 20.5236 33.1697 20.2153 33.0689C19.9325 32.976 19.6192 32.9863 19.5526 32.9885C19.547 32.9886 19.5431 32.9888 19.5412 32.9888V33.9885L19.5443 32.9888C19.1612 32.9876 18.7777 32.9874 18.3976 32.9875M21.3176 34.7031L18.3976 32.9875M14.0786 39.6247C15.6661 39.4615 16.9708 38.6918 17.8401 37.3338L14.0786 39.6247ZM1.0452 33.0072C0.725649 33.0585 0.377217 33.1967 0.101609 33.4902C-0.177764 33.7877 -0.296372 34.1534 -0.317388 34.4986L1.0452 33.0072ZM18.3976 32.9875C18.074 32.0914 17.5806 31.3241 16.9148 30.7344C16.0607 29.9778 14.9839 29.5679 13.7775 29.5066L18.3976 32.9875ZM11.6487 34.5833C11.6487 33.5045 12.5133 32.6393 13.5839 32.6368C14.641 32.6342 15.515 33.504 15.5133 34.5809C15.5107 35.6403 14.6487 36.5048 13.5931 36.5112C12.5253 36.5176 11.6487 35.6447 11.6487 34.5833Z" fill="black" stroke="white" stroke-width="2"></path><path d="M22.8056 0.078125L22.9317 0.1116C22.999 0.129467 23.0779 0.149126 23.1639 0.170584C23.3987 0.229153 23.6873 0.301131 23.9423 0.386688L23.9426 0.386769C24.3119 0.510757 24.6762 0.74412 24.9111 1.12129C25.157 1.51605 25.204 1.98143 25.0646 2.41244L25.0641 2.41378C24.9273 2.83493 24.6281 3.20958 24.1629 3.39208C23.7313 3.56137 23.2923 3.51226 22.938 3.39942L22.9379 3.3994C21.8559 3.05476 20.9222 3.53026 20.5839 4.44202L22.8056 0.078125ZM22.8056 0.078125H22.6752M22.8056 0.078125H22.6752M22.6752 0.078125C22.5279 0.078125 22.3802 0.078371 22.2336 0.0786154L22.2332 0.0786161C22.0861 0.0788611 21.94 0.0791044 21.7945 0.0791044H21.6231L21.4616 0.136142C21.427 0.14835 21.3965 0.160285 21.3773 0.16789L21.3633 0.173451L21.3545 0.176941C19.4545 0.574403 18.1396 1.74395 17.5125 3.58461L17.5122 3.58552C17.51 3.59214 17.5078 3.5988 17.5055 3.60552H17.4972H17.4655H17.4337H17.4019H17.3701H17.3383H17.3066H17.2748H17.243H17.2112H17.1794H17.1477H17.1159H17.0841H17.0523H17.0205H16.9888H16.957H16.9252H16.8934H16.8617H16.8299H16.7981H16.7663H16.7345H16.7028H16.671H16.6392H16.6074H16.5756H16.5439H16.5121H16.4803H16.4485H16.4167H16.385H16.3532H16.3214H16.2896H16.2579H16.2261H16.1943H16.1625H16.1307H16.099H16.0672H16.0354H16.0036H15.9718H15.9401H15.9083H15.8765H15.8447H15.8129H15.7812H15.7494H15.7176H15.6858H15.6541H15.6223H15.5905H15.5587H15.5269H15.4952H15.4634H15.4316H15.3998H15.368H15.3363H15.3045H15.2727H15.2409H15.2092H15.1774H15.1456H15.1138H15.082H15.0503H15.0185H14.9867H14.9549H14.9232H14.8914H14.8596H14.8278H14.796H14.7643H14.7325H14.7007H14.6689H14.6371H14.6054H14.5736H14.5418H14.51H14.4783H14.4465H14.4147H14.3829H14.3511H14.3194H14.2876H14.2558H14.224H14.1923H14.1605H14.1287H14.0969H14.0651H14.0334H14.0016H13.9698H13.938H13.9063H13.8745H13.8427H13.8109H13.7791H13.7474H13.7156H13.6838H13.652H13.6203H13.5885H13.5567H13.5249H13.4931H13.4614H13.4296H13.3978H13.366H13.3343H13.3025H13.2707H13.2389H13.2071H13.1754H13.1436H13.1118H13.08H13.0483H13.0165H12.9847H12.9529H12.9211H12.8894H12.8576H12.8258H12.794H12.7623H12.7305H12.6987H12.6669H12.6351H12.6034H12.5716H12.5398H12.508H12.4763H12.4445H12.4127H12.3809H12.3492H12.3174H12.2856H12.2538H12.222H12.1903H12.1585H12.1267H12.0949H12.0632H12.0314H11.9996H11.9678H11.936H11.9043H11.8725H11.8407H11.8089H11.7772H11.7454H11.7136H11.6818H11.65H11.6183H11.5865H11.5547H11.5229H11.4912H11.4594H11.4276H11.3958H11.3641H11.3323H11.3005H11.2687H11.2369H11.2052H11.1734H11.1416H11.1098H11.0781H11.0463H11.0145H10.9827H10.9509H10.9192H10.8874H10.8556H10.8238H10.7921H10.7603H10.7285H10.6967H10.665H10.6332H10.6014H10.5696H10.5378H10.5061H10.4743H10.4425H10.4107H10.379H10.3472H10.3154H10.2836H10.2518H10.2201H10.1883H10.1565H10.1247H10.093H10.0612H10.0294H9.99763H9.96585H9.93408H9.9023H9.87052H9.83875H9.80697H9.77519H9.74341H9.71164H9.67986H9.64808H9.6163H9.58453H9.55275H9.52097H9.4892H9.45742H9.42564H9.39386H9.36209H9.33031H9.29853H9.26676H9.23498H9.2032H9.17142H9.13965H9.10787H9.07609H9.04431H9.01254H8.98076H8.94898H8.9172H8.88543H8.85365H8.82187H8.7901H8.75832H8.72654H8.69476H8.66299H8.63121H8.59943H8.56766H8.53588H8.5041H8.47232H8.44055H8.40877H8.37699H8.34521H8.31344H8.28166H8.24988H8.2181H8.18633H8.15455H8.12277H8.091H8.05922H8.02744H7.99566H7.96389H7.93211H7.90033H7.86855H7.83678H7.805H7.77322H7.74144H7.70967H7.67789H7.64611H7.61433H7.58256H7.55078H7.519H7.48722H7.45545H7.42367H7.39189H7.36012H7.32834H7.29656H7.26478H7.233H7.20123H7.16945H7.13767H7.10589H7.07412H7.04234H7.01056H6.97878H6.94701H6.91523H6.88345H6.85167H6.8199H6.78812H6.75634H6.72456H6.69279H6.66101H6.62923H6.59745H6.56568H6.5339H6.50212H6.47034H6.43856H6.40679H6.37501H6.34323H6.31145H6.27968H6.2479H6.21612H6.18434H6.15256H6.12079H6.08901H6.05723H6.02545H5.99368H5.9619H5.93012H5.89834H5.86656H5.83479H5.80301H5.77123H5.73945H5.70767H5.6759H5.64412H5.61234H5.58056H5.54878H5.51701H5.48523H5.45345H5.42167H5.38989H5.35812H5.32634H5.29456H5.26278H5.231H5.19922H5.16745H5.13567H5.10389H5.07211H5.04033H5.00856H4.97678H4.945H4.91322H4.88144H4.84966H4.81789H4.78611H4.75433H4.72255H4.69077H4.65899H4.62722H4.59544H4.56366H4.53188H4.5001H4.46832H4.43654H4.40477H4.37299H4.34121H4.30943H4.27765H4.24587H4.2141H4.18232H4.15054H4.11876H4.08698H4.0552H4.02342H3.99164H3.95987H3.92809H3.89631H3.86453H3.83275H3.80097H3.76919H3.73741H3.70564H3.67386H3.64208H3.6103H3.57852H3.54674H3.51496H3.48318H3.4514H3.41963H3.38785H3.35607H3.32429H3.29251H3.26073H3.22895H3.19717H3.16539H3.13361H3.10183H3.07005H3.03828H3.0065H2.97472H2.94294H2.91116H2.87938H2.8476H2.81582H2.78404H2.75226H2.72048H2.6887H2.65692H2.62514H2.59336H2.56158H2.52981H2.49803H2.46625H2.43447H2.40269H2.37091H2.33913H2.30735H2.27557H2.24379H2.21201H2.18023H2.14845H2.11667H2.08489H2.05311H2.02133H1.98955H1.95777H1.92599H1.89421H1.86243H1.83065H1.79887H1.76709H1.73531H1.70353H1.67175H1.63997H1.60819H1.57641C1.57627 3.60552 1.57541 3.60548 1.57385 3.60542C1.54457 3.60421 1.27157 3.59296 1.06694 3.62267M22.6752 0.078125L1.06694 3.62267M1.06694 3.62267C0.742521 3.66959 0.390997 3.80527 0.11202 4.09722C-0.169813 4.39215 -0.291341 4.75631 -0.316277 5.09916L-0.316386 5.10068C-0.379806 5.99148 0.296527 6.66585 1.07925 6.76519L1.07925 6.7652L1.08413 6.7658C1.25642 6.78681 1.4652 6.78223 1.54388 6.7805C1.55691 6.78022 1.56638 6.78001 1.57151 6.78001H1.60336H1.63521H1.66706H1.69891H1.73076H1.76261H1.79446H1.82631H1.85815H1.89H1.92185H1.9537H1.98555H2.0174H2.04925H2.0811H2.11295H2.1448H2.17665H2.20849H2.24034H2.27219H2.30404H2.33589H2.36774H2.39959H2.43144H2.46329H2.49514H2.52699H2.55883H2.59068H2.62253H2.65438H2.68623H2.71808H2.74993H2.78178H2.81363H2.84548H2.87732H2.90917H2.94102H2.97287H3.00472H3.03657H3.06842H3.10027H3.13212H3.16397H3.19582H3.22766H3.25951H3.29136H3.32321H3.35506H3.38691H3.41876H3.45061H3.48246H3.51431H3.54615H3.578H3.60985H3.6417H3.67355H3.7054H3.73725H3.7691H3.80095H3.8328H3.86465H3.89649H3.92834H3.96019H3.99204H4.02389H4.05574H4.08759H4.11944H4.15129H4.18314H4.21499H4.24683H4.27868H4.31053H4.34238H4.37423H4.40608H4.43793H4.46978H4.50163H4.53348H4.56532H4.59717H4.62902H4.66087H4.69272H4.72457H4.75642H4.78827H4.82012H4.85197H4.88382H4.91566H4.94751H4.97936H5.01121H5.04306H5.07491H5.10676H5.13861H5.17046H5.20231H5.23415H5.266H5.29785H5.3297H5.36155H5.3934H5.42525H5.4571H5.48895H5.5208H5.55265H5.58449H5.61634H5.64819H5.68004H5.71189H5.74374H5.77559H5.80744H5.83929H5.87114H5.90298H5.93483H5.96668H5.99853H6.03038H6.06223H6.09408H6.12593H6.15778H6.18963H6.22148H6.25332H6.28517H6.31702H6.34887H6.38072H6.41257H6.44442H6.47627H6.50812H6.53997H6.57181H6.60366H6.63551H6.66736H6.69921H6.73106H6.76291H6.79476H6.82661H6.85846H6.8903H6.92215H6.954H6.98585H7.0177H7.04955H7.0814H7.11325H7.1451H7.17695H7.2088H7.24064H7.27249H7.30434H7.33619H7.36804H7.39989H7.43174H7.46359H7.49544H7.52729H7.55913H7.59098H7.62283H7.65468H7.68653H7.71838H7.75023H7.78208H7.81393H7.84578H7.87762H7.90947H7.94132H7.97317H8.00502H8.03687H8.06872H8.10057H8.13242H8.16427H8.19611H8.22796H8.25981H8.29166H8.32351H8.35536H8.38721H8.41906H8.45091H8.48276H8.5146H8.54645H8.5783H8.61015H8.642H8.67385H8.7057H8.73755H8.7694H8.80124H8.83309H8.86494H8.89679H8.92864H8.96049H8.99234H9.02419H9.05604H9.08789H9.11973H9.15158H9.18343H9.21528H9.24713H9.27898H9.31083H9.34268H9.37453H9.40638H9.43822H9.47007H9.50192H9.53377H9.56562H9.59747H9.62932H9.66117H9.69302H9.72486H9.75671H9.78856H9.82041H9.85226H9.88411H9.91596H9.94781H9.97966H10.0115H10.0434H10.0752H10.1071H10.1389H10.1708H10.2026H10.2344H10.2663H10.2981H10.33H10.3618H10.3937H10.4255H10.4574H10.4892H10.5211H10.5529H10.5848H10.6166H10.6485H10.6803H10.7122H10.744H10.7759H10.8077H10.8396H10.8714H10.9033H10.9351H10.967H10.9988H11.0307H11.0625H11.0944H11.1262H11.1581H11.1899H11.2218H11.2536H11.2855H11.3173H11.3492H11.381H11.4129H11.4447H11.4766H11.5084H11.5403H11.5721H11.604H11.6358H11.6677H11.6995H11.7313H11.7632H11.795H11.8269H11.8587H11.8906H11.9224H11.9543H11.9861H12.018H12.0498H12.0817H12.1135H12.1454H12.1772H12.2091H12.2409H12.2728H12.3046H12.3365H12.3683H12.4002H12.432H12.4639H12.4957H12.5276H12.5594H12.5913H12.6231H12.655H12.6868H12.7187H12.7505H12.7824H12.8142H12.8461H12.8779H12.9098H12.9416H12.9735H13.0053H13.0372H13.069H13.1009H13.1327H13.1645H13.1964H13.2282H13.2601H13.2919H13.3238H13.3556H13.3875H13.4193H13.4512H13.483H13.5149H13.5467H13.5786H13.6104H13.6423H13.6741H13.706H13.7378H13.7697H13.8015H13.8334H13.8652H13.8971H13.9289H13.9608H13.9926H14.0245H14.0563H14.0882H14.12H14.1519H14.1837H14.2156H14.2474H14.2793H14.3111H14.343H14.3748H14.4067H14.4385H14.4703H14.5022H14.534H14.5659H14.5977H14.6296H14.6614H14.6933H14.7251H14.757H14.7888H14.8207H14.8525H14.8844H14.9162H14.9481H14.9799H15.0118H15.0436H15.0755H15.1073H15.1392H15.171H15.2029H15.2347H15.2666H15.2984H15.3303H15.3621H15.394H15.4258H15.4577H15.4895H15.5214H15.5532H15.5851H15.6169H15.6488H15.6806H15.7125H15.7443H15.7761H15.808H15.8398H15.8717H15.9035H15.9354H15.9672H15.9991H16.0309H16.0628H16.0946H16.1265H16.1583H16.1902H16.222H16.2539H16.2857H16.3176H16.3494H16.3813H16.4131H16.445H16.4768H16.5087H16.5405H16.5724H16.6042H16.6361H16.6679H16.6998H16.7316H16.7635H16.7953H16.8272H16.859H16.8909H16.9227H16.9546H16.9864H17.0182H17.0501H17.0819H17.1138H17.1456H17.1775H17.2093H17.2412H17.273H17.3049H17.3367H17.3686H17.4004H17.4323H17.4641H17.496H17.5278H17.5597H17.577C17.8224 7.46321 18.206 8.08767 18.7551 8.61744L18.7558 8.61815C19.3529 9.19308 20.2744 9.23448 20.9031 8.68754L20.9047 8.68617C21.5864 8.0906 21.5888 7.15129 21.1003 6.50521L21.099 6.50341C21.0396 6.42524 20.9779 6.35842 20.9471 6.32508L20.9422 6.31979C20.9087 6.28342 20.9022 6.27572 20.9022 6.27574L20.9 6.27291C20.4362 5.67675 20.3381 5.10465 20.5838 4.44209L1.06694 3.62267Z" fill="black" stroke="white" stroke-width="2"></path><path d="M26.5 5.17957L25.5 5.17646C25.4989 5.54639 25.6126 5.92886 25.892 6.2385C26.1615 6.53722 26.5068 6.68142 26.8175 6.74067C26.9622 6.76844 27.09 6.77128 27.1711 6.7711C27.2098 6.77101 27.2471 6.77008 27.2724 6.76944L27.2768 6.76933C27.3061 6.7686 27.3215 6.76828 27.3346 6.76828C28.0394 6.76828 28.744 6.76811 29.4485 6.76794C32.0908 6.76729 34.7309 6.76664 37.3719 6.77514L37.3724 6.77514C37.8953 6.77655 38.572 6.64963 39.0446 5.97431L39.2253 5.7161V5.40095V4.96014V4.64794L39.0477 4.39119C38.5739 3.70649 37.8895 3.58455 37.3732 3.58595L37.3727 3.58595C34.7318 3.59445 32.0918 3.5938 29.4494 3.59315C28.745 3.59298 28.0403 3.59281 27.3355 3.59281C27.3226 3.59281 27.3071 3.59249 27.2783 3.59175C27.2765 3.59171 27.2747 3.59166 27.2728 3.59161C27.2479 3.59098 27.2117 3.59004 27.1743 3.58988C27.0945 3.58952 26.9685 3.59188 26.8259 3.61804L26.8259 3.61804L26.8233 3.61854C26.5108 3.67676 26.1637 3.82057 25.8929 4.1203C25.6131 4.42995 25.5 4.81191 25.5 5.17957H26.5ZM26.5 5.17957C26.5 4.85435 26.691 4.66039 27.0064 4.60162L37.3751 5.77514C34.7321 5.76663 32.0898 5.76728 29.4472 5.76794C28.7431 5.76811 28.0388 5.76828 27.3346 5.76828C27.3066 5.76828 27.2783 5.76899 27.2501 5.76969C27.1676 5.77174 27.0849 5.7738 27.0054 5.75849C26.691 5.69873 26.499 5.50479 26.5 5.17957Z" fill="black" stroke="white" stroke-width="2"></path><path d="M9.61979 21.468C8.67344 24.2185 6.13956 25.1936 4.2229 24.9628L4.22246 24.9628C1.64451 24.6513 -0.309218 22.5399 -0.327955 19.9743L9.61979 21.468ZM9.61979 21.468C9.76157 21.4681 9.90396 21.4683 10.0468 21.4685C10.6234 21.4694 11.207 21.4702 11.7857 21.4641L9.61979 21.468ZM4.81008 17.9416L4.80977 17.9416C3.72101 17.9332 2.84715 18.8003 2.84651 19.8877V19.8878C2.84587 20.9422 3.71567 21.8138 4.76176 21.8171L4.81008 17.9416ZM4.81008 17.9416C5.84672 17.9493 6.71243 18.8177 6.71015 19.8872L4.81008 17.9416ZM11.4128 18.2916H11.4178C11.4324 18.2916 11.4529 18.2914 11.4778 18.2911C11.5677 18.29 11.7139 18.2882 11.8377 18.2951C12.2229 18.315 12.6178 18.4535 12.9258 18.7491C13.2415 19.0522 13.4036 19.463 13.4002 19.8906M11.4128 18.2916L11.7858 21.4641C12.1914 21.4599 12.5996 21.3217 12.9151 21.0231C13.2331 20.7222 13.3974 20.3131 13.4002 19.8906M11.4128 18.2916H11.4078M11.4128 18.2916H11.4078M13.4002 19.8906C13.4002 19.8911 13.4002 19.8916 13.4002 19.8921L12.4004 19.8832L13.4003 19.8891C13.4003 19.8896 13.4002 19.8901 13.4002 19.8906ZM11.4078 18.2916H11.4028M11.4078 18.2916H11.4028M11.4028 18.2916H11.3978M11.4028 18.2916H11.3978M11.3978 18.2916H11.3928M11.3978 18.2916H11.3928M11.3928 18.2916H11.3878M11.3928 18.2916H11.3878M11.3878 18.2916H11.3828M11.3878 18.2916H11.3828M11.3828 18.2916H11.3778M11.3828 18.2916H11.3778M11.3778 18.2916H11.3728M11.3778 18.2916H11.3728M11.3728 18.2916H11.3678M11.3728 18.2916H11.3678M11.3678 18.2916H11.3628M11.3678 18.2916H11.3628M11.3628 18.2916H11.3578M11.3628 18.2916H11.3578M11.3578 18.2916H11.3528M11.3578 18.2916H11.3528M11.3528 18.2916H11.3478M11.3528 18.2916H11.3478M11.3478 18.2916H11.3428M11.3478 18.2916H11.3428M11.3428 18.2916H11.3378M11.3428 18.2916H11.3378M11.3378 18.2916H11.3328M11.3378 18.2916H11.3328M11.3328 18.2916H11.3278M11.3328 18.2916H11.3278M11.3278 18.2916H11.3228M11.3278 18.2916H11.3228M11.3228 18.2916H11.3178M11.3228 18.2916H11.3178M11.3178 18.2916H11.3128M11.3178 18.2916H11.3128M11.3128 18.2916H11.3078M11.3128 18.2916H11.3078M11.3078 18.2916H11.3028M11.3078 18.2916H11.3028M11.3028 18.2916H11.2978M11.3028 18.2916H11.2978M11.2978 18.2916H11.2928M11.2978 18.2916H11.2928M11.2928 18.2916H11.2878M11.2928 18.2916H11.2878M11.2878 18.2916H11.2828M11.2878 18.2916H11.2828M11.2828 18.2916H11.2778M11.2828 18.2916H11.2778M11.2778 18.2916H11.2728M11.2778 18.2916H11.2728M11.2728 18.2916H11.2678M11.2728 18.2916H11.2678M11.2678 18.2916H11.2628M11.2678 18.2916H11.2628M11.2628 18.2916H11.2578M11.2628 18.2916H11.2578M11.2578 18.2916H11.2528M11.2578 18.2916H11.2528M11.2528 18.2916H11.2478M11.2528 18.2916H11.2478M11.2478 18.2916H11.2428M11.2478 18.2916H11.2428M11.2428 18.2916H11.2378M11.2428 18.2916H11.2378M11.2378 18.2916H11.2328M11.2378 18.2916H11.2328M11.2328 18.2916H11.2278M11.2328 18.2916H11.2278M11.2278 18.2916H11.2228M11.2278 18.2916H11.2228M11.2228 18.2916H11.2178M11.2228 18.2916H11.2178M11.2178 18.2916H11.2128M11.2178 18.2916H11.2128M11.2128 18.2916H11.2078M11.2128 18.2916H11.2078M11.2078 18.2916H11.2028M11.2078 18.2916H11.2028M11.2028 18.2916H11.1978M11.2028 18.2916H11.1978M11.1978 18.2916H11.1928M11.1978 18.2916H11.1928M11.1928 18.2916H11.1878M11.1928 18.2916H11.1878M11.1878 18.2916H11.1828M11.1878 18.2916H11.1828M11.1828 18.2916H11.1778M11.1828 18.2916H11.1778M11.1778 18.2916H11.1729M11.1778 18.2916H11.1729M11.1729 18.2916H11.1679M11.1729 18.2916H11.1679M11.1679 18.2916H11.1629M11.1679 18.2916H11.1629M11.1629 18.2916H11.1579M11.1629 18.2916H11.1579M11.1579 18.2916H11.1529M11.1579 18.2916H11.1529M11.1529 18.2916H11.1479M11.1529 18.2916H11.1479M11.1479 18.2916H11.1429M11.1479 18.2916H11.1429M11.1429 18.2916H11.1379M11.1429 18.2916H11.1379M11.1379 18.2916H11.1329M11.1379 18.2916H11.1329M11.1329 18.2916H11.1279M11.1329 18.2916H11.1279M11.1279 18.2916H11.1229M11.1279 18.2916H11.1229M11.1229 18.2916H11.1179M11.1229 18.2916H11.1179M11.1179 18.2916H11.1129M11.1179 18.2916H11.1129M11.1129 18.2916H11.1079M11.1129 18.2916H11.1079M11.1079 18.2916H11.1029M11.1079 18.2916H11.1029M11.1029 18.2916H11.0979M11.1029 18.2916H11.0979M11.0979 18.2916H11.0929M11.0979 18.2916H11.0929M11.0929 18.2916H11.0879M11.0929 18.2916H11.0879M11.0879 18.2916H11.0829M11.0879 18.2916H11.0829M11.0829 18.2916H11.0779M11.0829 18.2916H11.0779M11.0779 18.2916H11.0729M11.0779 18.2916H11.0729M11.0729 18.2916H11.0679M11.0729 18.2916H11.0679M11.0679 18.2916H11.0629M11.0679 18.2916H11.0629M11.0629 18.2916H11.0579M11.0629 18.2916H11.0579M11.0579 18.2916H11.0529M11.0579 18.2916H11.0529M11.0529 18.2916H11.0479M11.0529 18.2916H11.0479M11.0479 18.2916H11.0429M11.0479 18.2916H11.0429M11.0429 18.2916H11.0379M11.0429 18.2916H11.0379M11.0379 18.2916H11.0329M11.0379 18.2916H11.0329M11.0329 18.2916H11.0279M11.0329 18.2916H11.0279M11.0279 18.2916H11.0229M11.0279 18.2916H11.0229M11.0229 18.2916H11.0179M11.0229 18.2916H11.0179M11.0179 18.2916H11.0129M11.0179 18.2916H11.0129M11.0129 18.2916H11.008M11.0129 18.2916H11.008M11.008 18.2916H11.003M11.008 18.2916H11.003M11.003 18.2916H10.998M11.003 18.2916H10.998M10.998 18.2916H10.993M10.998 18.2916H10.993M10.993 18.2916H10.988M10.993 18.2916H10.988M10.988 18.2916H10.983M10.988 18.2916H10.983M10.983 18.2916H10.978M10.983 18.2916H10.978M10.978 18.2916H10.973M10.978 18.2916H10.973M10.973 18.2916H10.968M10.973 18.2916H10.968M10.968 18.2916H10.963M10.968 18.2916H10.963M10.963 18.2916H10.958M10.963 18.2916H10.958M10.958 18.2916H10.953M10.958 18.2916H10.953M10.953 18.2916H10.948M10.953 18.2916H10.948M10.948 18.2916H10.943M10.948 18.2916H10.943M10.943 18.2916H10.938M10.943 18.2916H10.938M10.938 18.2916H10.933M10.938 18.2916H10.933M10.933 18.2916H10.928M10.933 18.2916H10.928M10.928 18.2916H10.923M10.928 18.2916H10.923M10.923 18.2916H10.918M10.923 18.2916H10.918M10.918 18.2916H10.913M10.918 18.2916H10.913M10.913 18.2916H10.908M10.913 18.2916H10.908M10.908 18.2916H10.903M10.908 18.2916H10.903M10.903 18.2916H10.898M10.903 18.2916H10.898M10.898 18.2916H10.8931M10.898 18.2916H10.8931M10.8931 18.2916H10.8881M10.8931 18.2916H10.8881M10.8881 18.2916H10.8831M10.8881 18.2916H10.8831M10.8831 18.2916H10.8781M10.8831 18.2916H10.8781M10.8781 18.2916H10.8731M10.8781 18.2916H10.8731M10.8731 18.2916H10.8681M10.8731 18.2916H10.8681M10.8681 18.2916H10.8631M10.8681 18.2916H10.8631M10.8631 18.2916H10.8581M10.8631 18.2916H10.8581M10.8581 18.2916H10.8531M10.8581 18.2916H10.8531M10.8531 18.2916H10.8481M10.8531 18.2916H10.8481M10.8481 18.2916H10.8431M10.8481 18.2916H10.8431M10.8431 18.2916H10.8381M10.8431 18.2916H10.8381M10.8381 18.2916H10.8331M10.8381 18.2916H10.8331M10.8331 18.2916H10.8281M10.8331 18.2916H10.8281M10.8281 18.2916H10.8231M10.8281 18.2916H10.8231M10.8231 18.2916H10.8181M10.8231 18.2916H10.8181M10.8181 18.2916H10.8131M10.8181 18.2916H10.8131M10.8131 18.2916H10.8081M10.8131 18.2916H10.8081M10.8081 18.2916H10.8032M10.8081 18.2916H10.8032M10.8032 18.2916H10.7982M10.8032 18.2916H10.7982M10.7982 18.2916H10.7932M10.7982 18.2916H10.7932M10.7932 18.2916H10.7882M10.7932 18.2916H10.7882M10.7882 18.2916H10.7832M10.7882 18.2916H10.7832M10.7832 18.2916H10.7782M10.7832 18.2916H10.7782M10.7782 18.2916H10.7732M10.7782 18.2916H10.7732M10.7732 18.2916H10.7682M10.7732 18.2916H10.7682M10.7682 18.2916H10.7632M10.7682 18.2916H10.7632M10.7632 18.2916H10.7582M10.7632 18.2916H10.7582M10.7582 18.2916H10.7532M10.7582 18.2916H10.7532M10.7532 18.2916H10.7482M10.7532 18.2916H10.7482M10.7482 18.2916H10.7432M10.7482 18.2916H10.7432M10.7432 18.2916H10.7382M10.7432 18.2916H10.7382M10.7382 18.2916H10.7332M10.7382 18.2916H10.7332M10.7332 18.2916H10.7283M10.7332 18.2916H10.7283M10.7283 18.2916H10.7233M10.7283 18.2916H10.7233M10.7233 18.2916H10.7183M10.7233 18.2916H10.7183M10.7183 18.2916H10.7133M10.7183 18.2916H10.7133M10.7133 18.2916H10.7083M10.7133 18.2916H10.7083M10.7083 18.2916H10.7033M10.7083 18.2916H10.7033M10.7033 18.2916H10.6983M10.7033 18.2916H10.6983M10.6983 18.2916H10.6933M10.6983 18.2916H10.6933M10.6933 18.2916H10.6883M10.6933 18.2916H10.6883M10.6883 18.2916H10.6833M10.6883 18.2916H10.6833M10.6833 18.2916H10.6783M10.6833 18.2916H10.6783M10.6783 18.2916H10.6733M10.6783 18.2916H10.6733M10.6733 18.2916H10.6683M10.6733 18.2916H10.6683M10.6683 18.2916H10.6634M10.6683 18.2916H10.6634M10.6634 18.2916H10.6584M10.6634 18.2916H10.6584M10.6584 18.2916H10.6534M10.6584 18.2916H10.6534M10.6534 18.2916H10.6484M10.6534 18.2916H10.6484M10.6484 18.2916H10.6434M10.6484 18.2916H10.6434M10.6434 18.2916H10.6384M10.6434 18.2916H10.6384M10.6384 18.2916H10.6334M10.6384 18.2916H10.6334M10.6334 18.2916H10.6284M10.6334 18.2916H10.6284M10.6284 18.2916H10.6234M10.6284 18.2916H10.6234M10.6234 18.2916H10.6184M10.6234 18.2916H10.6184M10.6184 18.2916H10.6134M10.6184 18.2916H10.6134M10.6134 18.2916H10.6085M10.6134 18.2916H10.6085M10.6085 18.2916H10.6035M10.6085 18.2916H10.6035M10.6035 18.2916H10.5985M10.6035 18.2916H10.5985M10.5985 18.2916H10.5935M10.5985 18.2916H10.5935M10.5935 18.2916H10.5885M10.5935 18.2916H10.5885M10.5885 18.2916H10.5835M10.5885 18.2916H10.5835M10.5835 18.2916H10.5785M10.5835 18.2916H10.5785M10.5785 18.2916H10.5735M10.5785 18.2916H10.5735M10.5735 18.2916H10.5685M10.5735 18.2916H10.5685M10.5685 18.2916H10.5635M10.5685 18.2916H10.5635M10.5635 18.2916H10.5585M10.5635 18.2916H10.5585M10.5585 18.2916H10.5536M10.5585 18.2916H10.5536M10.5536 18.2916H10.5486M10.5536 18.2916H10.5486M10.5486 18.2916H10.5436M10.5486 18.2916H10.5436M10.5436 18.2916H10.5386M10.5436 18.2916H10.5386M10.5386 18.2916H10.5336M10.5386 18.2916H10.5336M10.5336 18.2916H10.5286M10.5336 18.2916H10.5286M10.5286 18.2916H10.5236M10.5286 18.2916H10.5236M10.5236 18.2916H10.5186M10.5236 18.2916H10.5186M10.5186 18.2916H10.5136M10.5186 18.2916H10.5136M10.5136 18.2916H10.5086M10.5136 18.2916H10.5086M10.5086 18.2916H10.5037M10.5086 18.2916H10.5037M10.5037 18.2916H10.4987M10.5037 18.2916H10.4987M10.4987 18.2916H10.4937M10.4987 18.2916H10.4937M10.4937 18.2916H10.4887M10.4937 18.2916H10.4887M10.4887 18.2916H10.4837M10.4887 18.2916H10.4837M10.4837 18.2916H10.4787M10.4837 18.2916H10.4787M10.4787 18.2916H10.4737M10.4787 18.2916H10.4737M10.4737 18.2916H10.4687M10.4737 18.2916H10.4687M10.4687 18.2916H10.4637M10.4687 18.2916H10.4637M10.4637 18.2916H10.4588M10.4637 18.2916H10.4588M10.4588 18.2916H10.4538M10.4588 18.2916H10.4538M10.4538 18.2916H10.4488M10.4538 18.2916H10.4488M10.4488 18.2916H10.4438M10.4488 18.2916H10.4438M10.4438 18.2916H10.4388M10.4438 18.2916H10.4388M10.4388 18.2916H10.4338M10.4388 18.2916H10.4338M10.4338 18.2916H10.4288M10.4338 18.2916H10.4288M10.4288 18.2916H10.4238M10.4288 18.2916H10.4238M10.4238 18.2916H10.4189M10.4238 18.2916H10.4189M10.4189 18.2916H10.4139M10.4189 18.2916H10.4139M10.4139 18.2916H10.4089M10.4139 18.2916H10.4089M10.4089 18.2916H10.4039M10.4089 18.2916H10.4039M10.4039 18.2916H10.3989M10.4039 18.2916H10.3989M10.3989 18.2916H10.3939M10.3989 18.2916H10.3939M10.3939 18.2916H10.3889M10.3939 18.2916H10.3889M10.3889 18.2916H10.3839M10.3889 18.2916H10.3839M10.3839 18.2916H10.379M10.3839 18.2916H10.379M10.379 18.2916H10.374M10.379 18.2916H10.374M10.374 18.2916H10.369M10.374 18.2916H10.369M10.369 18.2916H10.364M10.369 18.2916H10.364M10.364 18.2916H10.359M10.364 18.2916H10.359M10.359 18.2916H10.354M10.359 18.2916H10.354M10.354 18.2916H10.349M10.354 18.2916H10.349M10.349 18.2916H10.3441M10.349 18.2916H10.3441M10.3441 18.2916H10.3391M10.3441 18.2916H10.3391M10.3391 18.2916H10.3341M10.3391 18.2916H10.3341M10.3341 18.2916H10.3291M10.3341 18.2916H10.3291M10.3291 18.2916H10.3241M10.3291 18.2916H10.3241M10.3241 18.2916H10.3191M10.3241 18.2916H10.3191M10.3191 18.2916H10.3141M10.3191 18.2916H10.3141M10.3141 18.2916H10.3091M10.3141 18.2916H10.3091M10.3091 18.2916H10.3042M10.3091 18.2916H10.3042M10.3042 18.2916H10.2992M10.3042 18.2916H10.2992M10.2992 18.2916H10.2942M10.2992 18.2916H10.2942M10.2942 18.2916H10.2892M10.2942 18.2916H10.2892M10.2892 18.2916H10.2842M10.2892 18.2916H10.2842M10.2842 18.2916H10.2792M10.2842 18.2916H10.2792M10.2792 18.2916H10.2743M10.2792 18.2916H10.2743M10.2743 18.2916H10.2693M10.2743 18.2916H10.2693M10.2693 18.2916H10.2643M10.2693 18.2916H10.2643M10.2643 18.2916H10.2593M10.2643 18.2916H10.2593M10.2593 18.2916H10.2543M10.2593 18.2916H10.2543M10.2543 18.2916H10.2493M10.2543 18.2916H10.2493M10.2493 18.2916H10.2443M10.2493 18.2916H10.2443M10.2443 18.2916H10.2394M10.2443 18.2916H10.2394M10.2394 18.2916H10.2344M10.2394 18.2916H10.2344M10.2344 18.2916H10.2294M10.2344 18.2916H10.2294M10.2294 18.2916H10.2244M10.2294 18.2916H10.2244M10.2244 18.2916H10.2194M10.2244 18.2916H10.2194M10.2194 18.2916H10.2144M10.2194 18.2916H10.2144M10.2144 18.2916H10.2095M10.2144 18.2916H10.2095M10.2095 18.2916H10.2045M10.2095 18.2916H10.2045M10.2045 18.2916H10.1995M10.2045 18.2916H10.1995M10.1995 18.2916H10.1945M10.1995 18.2916H10.1945M10.1945 18.2916H10.1895M10.1945 18.2916H10.1895M10.1895 18.2916H10.1845M10.1895 18.2916H10.1845M10.1845 18.2916H10.1796M10.1845 18.2916H10.1796M10.1796 18.2916H10.1746M10.1796 18.2916H10.1746M10.1746 18.2916H10.1696M10.1746 18.2916H10.1696M10.1696 18.2916H10.1646M10.1696 18.2916H10.1646M10.1646 18.2916H10.1596M10.1646 18.2916H10.1596M10.1596 18.2916H10.1546M10.1596 18.2916H10.1546M10.1546 18.2916H10.1497M10.1546 18.2916H10.1497M10.1497 18.2916H10.1447M10.1497 18.2916H10.1447M10.1447 18.2916H10.1397M10.1447 18.2916H10.1397M10.1397 18.2916H10.1347M10.1397 18.2916H10.1347M10.1347 18.2916H10.1297M10.1347 18.2916H10.1297M10.1297 18.2916H10.1248M10.1297 18.2916H10.1248M10.1248 18.2916H10.1198M10.1248 18.2916H10.1198M10.1198 18.2916H10.1148M10.1198 18.2916H10.1148M10.1148 18.2916H10.1098M10.1148 18.2916H10.1098M10.1098 18.2916H10.1048M10.1098 18.2916H10.1048M10.1048 18.2916H10.0998M10.1048 18.2916H10.0998M10.0998 18.2916H10.0949M10.0998 18.2916H10.0949M10.0949 18.2916H10.0899M10.0949 18.2916H10.0899M10.0899 18.2916H10.0849M10.0899 18.2916H10.0849M10.0849 18.2916H10.0799M10.0849 18.2916H10.0799M10.0799 18.2916H10.0749M10.0799 18.2916H10.0749M10.0749 18.2916H10.07M10.0749 18.2916H10.07M10.07 18.2916H10.065M10.07 18.2916H10.065M10.065 18.2916H10.06M10.065 18.2916H10.06M10.06 18.2916H10.055M10.06 18.2916H10.055M10.055 18.2916H10.05M10.055 18.2916H10.05M10.05 18.2916H10.0451M10.05 18.2916H10.0451M10.0451 18.2916H10.0401M10.0451 18.2916H10.0401M10.0401 18.2916H10.0351M10.0401 18.2916H10.0351M10.0351 18.2916H10.0301M10.0351 18.2916H10.0301M10.0301 18.2916H10.0251M10.0301 18.2916H10.0251M10.0251 18.2916H10.0202M10.0251 18.2916H10.0202M10.0202 18.2916H10.0152M10.0202 18.2916H10.0152M10.0152 18.2916H10.0102M10.0152 18.2916H10.0102M10.0102 18.2916H10.0052M10.0102 18.2916H10.0052M10.0052 18.2916H10.0002M10.0052 18.2916H10.0002M10.0002 18.2916H9.99527M10.0002 18.2916H9.99527M9.99527 18.2916H9.99029M9.99527 18.2916H9.99029M9.99029 18.2916H9.98531M9.99029 18.2916H9.98531M9.98531 18.2916H9.98034M9.98531 18.2916H9.98034M9.98034 18.2916H9.97536M9.98034 18.2916H9.97536M9.97536 18.2916H9.97038M9.97536 18.2916H9.97038M9.97038 18.2916H9.9654M9.97038 18.2916H9.9654M9.9654 18.2916H9.96042M9.9654 18.2916H9.96042M9.96042 18.2916H9.95545M9.96042 18.2916H9.95545M9.95545 18.2916H9.95047M9.95545 18.2916H9.95047M9.95047 18.2916H9.94549M9.95047 18.2916H9.94549M9.94549 18.2916H9.94051M9.94549 18.2916H9.94051M9.94051 18.2916H9.93554M9.94051 18.2916H9.93554M9.93554 18.2916H9.93056M9.93554 18.2916H9.93056M9.93056 18.2916H9.92558M9.93056 18.2916H9.92558M9.92558 18.2916H9.92061M9.92558 18.2916H9.92061M9.92061 18.2916H9.91563M9.92061 18.2916H9.91563M9.91563 18.2916H9.91065M9.91563 18.2916H9.91065M9.91065 18.2916H9.90568M9.91065 18.2916H9.90568M9.90568 18.2916H9.9007M9.90568 18.2916H9.9007M9.9007 18.2916H9.89572M9.9007 18.2916H9.89572M9.89572 18.2916H9.89075M9.89572 18.2916H9.89075M9.89075 18.2916H9.88577M9.89075 18.2916H9.88577M9.88577 18.2916H9.8808M9.88577 18.2916H9.8808M9.8808 18.2916H9.87582M9.8808 18.2916H9.87582M9.87582 18.2916H9.87084M9.87582 18.2916H9.87084M9.87084 18.2916H9.86587M9.87084 18.2916H9.86587M9.86587 18.2916H9.86089M9.86587 18.2916H9.86089M9.86089 18.2916H9.85592M9.86089 18.2916H9.85592M9.85592 18.2916H9.85094M9.85592 18.2916H9.85094M9.85094 18.2916H9.84597M9.85094 18.2916H9.84597M9.84597 18.2916H9.84099M9.84597 18.2916H9.84099M9.84099 18.2916H9.83602M9.84099 18.2916H9.83602M9.83602 18.2916H9.83105M9.83602 18.2916H9.83105M9.83105 18.2916H9.82607M9.83105 18.2916H9.82607M9.82607 18.2916H9.8211M9.82607 18.2916H9.8211M9.8211 18.2916H9.81612M9.8211 18.2916H9.81612M9.81612 18.2916H9.81115M9.81612 18.2916H9.81115M9.81115 18.2916H9.80618M9.81115 18.2916H9.80618M9.80618 18.2916H9.8012M9.80618 18.2916H9.8012M9.8012 18.2916H9.79623M9.8012 18.2916H9.79623M9.79623 18.2916H9.79125M9.79623 18.2916H9.79125M9.79125 18.2916H9.78628M9.79125 18.2916H9.78628M9.78628 18.2916H9.78131M9.78628 18.2916H9.78131M9.78131 18.2916H9.77634M9.78131 18.2916H9.77634M9.77634 18.2916H9.77136M9.77634 18.2916H9.77136M9.77136 18.2916H9.76639M9.77136 18.2916H9.76639M9.76639 18.2916H9.76142M9.76639 18.2916H9.76142M9.76142 18.2916H9.75645M9.76142 18.2916H9.75645M9.75645 18.2916H9.75147M9.75645 18.2916H9.75147M9.75147 18.2916H9.7465M9.75147 18.2916H9.7465M9.7465 18.2916H9.74153M9.7465 18.2916H9.74153M9.74153 18.2916H9.73656M9.74153 18.2916H9.73656M9.73656 18.2916H9.73159M9.73656 18.2916H9.73159M9.73159 18.2916H9.72661M9.73159 18.2916H9.72661M9.72661 18.2916H9.72164M9.72661 18.2916H9.72164M9.72164 18.2916H9.71667M9.72164 18.2916H9.71667M9.71667 18.2916H9.7117M9.71667 18.2916H9.7117M9.7117 18.2916H9.70673M9.7117 18.2916H9.70673M9.70673 18.2916H9.70176M9.70673 18.2916H9.70176M9.70176 18.2916H9.69679M9.70176 18.2916H9.69679M9.69679 18.2916H9.69182M9.69679 18.2916H9.69182M9.69182 18.2916H9.68685M9.69182 18.2916H9.68685M9.68685 18.2916H9.68188M9.68685 18.2916H9.68188M9.68188 18.2916H9.67691M9.68188 18.2916H9.67691M9.67691 18.2916H9.67194M9.67691 18.2916H9.67194M9.67194 18.2916H9.66697M9.67194 18.2916H9.66697M9.66697 18.2916H9.662M9.66697 18.2916H9.662M9.662 18.2916H9.65703M9.662 18.2916H9.65703M9.65703 18.2916H9.65206M9.65703 18.2916H9.65206M9.65206 18.2916H9.64709M9.65206 18.2916H9.64709M9.64709 18.2916H9.64212M9.64709 18.2916H9.64212M9.64212 18.2916H9.63715M9.64212 18.2916H9.63715M9.63715 18.2916H9.63218M9.63715 18.2916H9.63218M9.63218 18.2916H9.62721M9.63218 18.2916H9.62721M9.62721 18.2916H9.62224M9.62721 18.2916H9.62224M9.62224 18.2916H9.61728M9.62224 18.2916H9.61728M9.61728 18.2916H9.61231M9.61728 18.2916H9.61231M9.61231 18.2916H9.60734M9.61231 18.2916H9.60734M9.60734 18.2916H9.60237M9.60734 18.2916H9.60237M9.60237 18.2916H9.5974M9.60237 18.2916H9.5974M9.5974 18.2916H9.59244M9.5974 18.2916H9.59244M9.59244 18.2916H9.58747M9.59244 18.2916H9.58747M9.58747 18.2916H9.58278M9.58747 18.2916H9.58278M9.58278 18.2916C9.15712 17.2189 8.52099 16.3285 7.69923 15.7035C6.68736 14.934 5.44796 14.6107 4.1341 14.8054M9.58278 18.2916L-0.327959 19.9738C-0.348287 17.3132 1.49512 15.1965 4.1341 14.8054M4.1341 14.8054L4.28072 15.7946L4.1341 14.8054ZM6.71015 19.8873C6.70688 20.9549 5.83766 21.8203 4.76181 21.8171L6.71015 19.8873Z" fill="black" stroke="white" stroke-width="2"></path></mask><g mask="url(#mask4_4924_127)"><path d="M8.86897 19.2838C9.71236 19.2838 10.5646 19.2838 11.4178 19.2838C11.5402 19.2838 11.6627 19.2789 11.7841 19.2858C12.1573 19.3044 12.4032 19.5423 12.4003 19.8754C12.3983 20.2075 12.1505 20.4525 11.7753 20.4564C10.9329 20.4652 10.0895 20.4593 9.2461 20.4603C9.11386 20.4603 8.9826 20.4603 8.85819 20.4603C8.28319 23.2325 6.0018 24.162 4.34243 23.9622C2.24225 23.7084 0.686708 22.0001 0.672015 19.9588C0.655362 17.8057 2.12568 16.1062 4.28072 15.7868C6.38285 15.4752 8.15095 16.8123 8.86897 19.2838ZM7.71015 19.8824C7.71406 18.2709 6.41321 16.9457 4.8175 16.9338C3.17381 16.9211 1.84748 18.2367 1.84651 19.8793C1.84553 21.483 3.15912 22.8043 4.75874 22.8092C6.3848 22.8142 7.70525 21.5045 7.71015 19.8824Z" stroke="white"></path></g></g><defs><clipPath id="clip0_4924_127"><rect width="39" height="39" fill="white"></rect></clipPath></defs></svg>